<?xml version="1.0" standalone="no"?>
<!DOCTYPE svg PUBLIC "-//W3C//DTD SVG 20010904//EN"
 "http://www.w3.org/TR/2001/REC-SVG-20010904/DTD/svg10.dtd">
<svg version="1.0" xmlns="http://www.w3.org/2000/svg"
 width="512.000000pt" height="512.000000pt" viewBox="0 0 512.000000 512.000000"
 preserveAspectRatio="xMidYMid meet">

<g transform="translate(0.000000,512.000000) scale(0.100000,-0.100000)"
fill="#000000" stroke="none">
<path d="M2596 5019 c-25 -20 -26 -24 -26 -124 l0 -104 -215 -3 c-276 -4 -259
9 -263 -192 l-3 -144 -131 -4 c-128 -3 -130 -3 -154 -31 l-24 -28 0 -730 0
-730 -30 16 c-16 9 -30 22 -30 30 0 30 -80 104 -135 124 -179 67 -420 1 -451
-124 -4 -16 -18 -28 -40 -35 -53 -18 -176 -103 -239 -165 -69 -69 -143 -181
-178 -267 -29 -74 -57 -199 -57 -258 0 -22 -4 -40 -10 -40 -5 0 -28 -16 -49
-36 -115 -103 -56 -285 98 -304 l44 -5 13 -60 c34 -170 140 -331 293 -446 l34
-25 -79 -28 c-186 -66 -355 -175 -504 -325 -195 -197 -315 -420 -370 -691 -26
-129 -26 -155 5 -185 l24 -25 1303 0 c1179 0 1306 2 1326 16 13 9 27 26 32 38
9 23 -8 143 -33 239 l-15 57 1108 0 c610 0 1116 3 1125 6 45 18 45 22 45 758
0 488 -3 702 -11 719 -14 32 -48 47 -107 48 l-47 0 85 34 c123 48 120 42 120
264 0 221 5 211 -122 260 l-85 33 -16 51 c-9 29 -32 83 -50 122 l-34 70 40 88
c28 65 37 96 32 115 -4 16 -59 80 -134 155 -148 148 -150 149 -274 92 l-76
-34 -73 33 c-40 18 -96 41 -125 50 -36 12 -54 24 -59 39 -25 83 -67 165 -90
176 -33 15 -354 15 -387 0 -27 -12 -35 -26 -66 -104 l-20 -50 0 517 -1 517
-24 28 c-24 28 -26 28 -155 32 l-131 3 0 140 0 140 -29 29 -29 29 -211 0 -211
0 0 104 c0 101 -1 105 -26 125 -15 12 -37 21 -49 21 -12 0 -34 -9 -49 -21z
m428 -395 c13 -5 16 -23 16 -90 l0 -84 -395 0 -395 0 0 83 c0 46 3 87 7 90 8
9 746 9 767 1z m326 -2189 l0 -1845 -110 0 -110 0 0 528 0 528 -26 52 c-14 29
-44 67 -66 86 -71 61 -100 66 -398 66 l-267 0 -61 -31 c-34 -17 -75 -47 -92
-67 -54 -65 -60 -102 -60 -348 l0 -222 -97 51 c-54 28 -133 63 -176 78 l-79
26 50 32 c88 56 192 181 237 287 25 56 55 156 55 180 0 18 8 22 47 28 56 7
101 36 134 84 30 45 34 143 6 185 l-17 27 123 0 c120 0 124 1 148 26 24 25 24
27 24 241 l0 215 -28 24 c-28 24 -31 24 -235 24 -166 0 -212 -3 -228 -15 -20
-14 -24 -11 -70 46 -27 34 -61 70 -76 81 l-28 19 0 730 0 729 700 0 700 0 0
-1845z m569 862 c37 -106 50 -121 122 -141 35 -10 110 -40 166 -67 57 -27 108
-49 115 -49 7 0 49 16 93 35 l80 35 74 -74 74 -74 -38 -87 -37 -88 50 -106
c28 -58 60 -137 72 -174 24 -76 27 -78 125 -116 l70 -27 0 -108 0 -107 -73
-29 c-92 -36 -108 -50 -122 -111 l-12 -49 -160 0 c-149 0 -160 1 -153 18 43
101 58 172 58 272 1 189 -53 321 -188 455 -89 89 -181 143 -295 171 -96 24
-272 15 -362 -18 l-68 -26 0 158 0 157 45 13 c54 15 64 27 101 126 l29 74 105
0 106 0 23 -63z m-2379 -352 c35 -18 35 -17 15 -185 -22 -178 -16 -170 -124
-170 -62 0 -92 4 -100 13 -6 8 -20 81 -31 162 -22 169 -21 174 48 194 48 13
153 6 192 -14z m-390 -262 c26 -207 76 -252 278 -253 128 0 166 13 220 74 35
41 48 80 58 182 9 101 12 103 76 61 165 -110 258 -261 293 -479 l6 -38 -651 0
-650 0 0 33 c0 101 78 279 164 374 50 54 165 143 186 143 4 0 13 -44 20 -97z
m2848 1 c97 -48 174 -124 219 -220 69 -145 67 -287 -6 -428 l-36 -71 -333 -3
-332 -2 0 344 0 345 73 36 c129 64 285 64 415 -1z m-1548 -259 l0 -105 -100 0
-100 0 0 105 0 105 100 0 100 0 0 -105z m-260 -380 c0 -13 -92 -15 -765 -15
-673 0 -765 2 -765 15 0 13 92 15 765 15 673 0 765 -2 765 -15z m-206 -212
c-61 -256 -296 -442 -559 -443 -152 0 -282 56 -396 169 -79 79 -140 182 -154
264 l-7 37 561 0 561 0 -6 -27z m2866 -638 l0 -605 -660 0 -660 0 0 50 0 50
555 0 c385 0 562 3 578 11 41 18 47 49 47 220 l0 161 -29 29 -29 29 -561 0
-561 0 0 55 0 55 561 0 561 0 29 29 29 29 0 167 0 167 -29 29 -29 29 -561 0
-561 0 0 50 0 50 660 0 660 0 0 -605z m-1940 480 c61 -31 60 -25 60 -580 l0
-505 -150 0 -150 0 -29 58 c-66 128 -211 319 -288 378 l-33 25 0 268 c0 174 4
279 11 300 7 18 26 41 43 52 28 17 53 19 269 19 193 0 244 -3 267 -15z m1635
-200 l0 -60 -495 -3 c-272 -1 -505 0 -517 3 -21 5 -23 11 -23 65 l0 60 518 -2
517 -3 0 -60z m-3056 -337 c16 -51 60 -187 96 -301 66 -207 66 -209 47 -230
-10 -12 -58 -67 -107 -122 -48 -55 -91 -101 -95 -103 -4 -1 -57 53 -118 122
l-110 124 96 301 96 301 32 0 c32 0 33 -1 63 -92z m-278 45 c-5 -16 -48 -151
-95 -301 -57 -177 -85 -279 -81 -293 6 -18 51 -71 258 -306 l39 -43 -546 0
-546 0 6 27 c60 249 164 442 330 607 99 100 202 172 338 237 82 39 252 95 298
99 4 0 3 -12 -1 -27z m574 -10 c317 -97 586 -332 731 -637 39 -83 94 -248 94
-282 0 -12 -86 -14 -540 -14 -297 0 -540 2 -540 3 0 2 65 78 145 168 113 128
145 170 145 192 0 16 -40 155 -90 310 -49 156 -90 286 -90 290 0 9 50 -1 145
-30z m2760 -258 l0 -60 -517 -3 -518 -2 0 59 c0 38 4 61 13 64 6 3 239 5 517
4 l505 -2 0 -60z"/>
<path d="M2109 4054 c-24 -25 -24 -28 -24 -229 0 -201 0 -204 24 -229 l24 -26
508 0 c279 0 515 3 524 6 38 15 45 56 45 249 0 193 -7 234 -45 249 -9 3 -245
6 -524 6 l-508 0 -24 -26z m931 -229 l0 -95 -395 0 -395 0 0 95 0 95 395 0
395 0 0 -95z"/>
<path d="M2113 3256 l-28 -24 0 -217 0 -217 28 -24 c28 -24 31 -24 237 -24
206 0 209 0 237 24 l28 24 0 217 0 217 -28 24 c-28 24 -31 24 -237 24 -206 0
-209 0 -237 -24z m337 -241 l0 -105 -100 0 -100 0 0 105 0 105 100 0 100 0 0
-105z"/>
<path d="M2705 3255 l-25 -24 0 -220 0 -220 26 -20 c25 -20 39 -21 235 -21
205 0 208 0 236 24 l28 24 0 217 0 217 -28 24 c-28 24 -31 24 -238 24 -210 0
-210 0 -234 -25z m335 -240 l0 -105 -100 0 -100 0 0 105 0 105 100 0 100 0 0
-105z"/>
<path d="M2705 2665 l-25 -24 0 -220 0 -220 26 -20 c25 -20 39 -21 239 -21
l212 0 24 26 c24 25 24 27 24 241 l0 215 -28 24 c-28 24 -31 24 -238 24 -210
0 -210 0 -234 -25z m335 -240 l0 -105 -100 0 -100 0 0 105 0 105 100 0 100 0
0 -105z"/>
</g>
</svg>
