<svg version="1.1" id="Layer_1" xmlns="http://www.w3.org/2000/svg" xmlns:xlink="http://www.w3.org/1999/xlink" x="0px" y="0px"
	 width="100%" viewBox="0 0 512 512" enable-background="new 0 0 512 512" xml:space="preserve">
<path fill="#746BF9" opacity="1.000000" stroke="none" 
	d="
M0.999999,267.000000 
	C1.000000,261.645081 1.000000,256.290131 1.402414,250.695221 
	C2.194655,249.776917 2.918228,249.102020 2.925232,248.419769 
	C3.078416,233.497742 6.150094,219.007431 10.143186,204.779739 
	C13.084616,194.299225 17.298958,184.175934 21.104431,174.252899 
	C21.509016,175.568466 21.765135,176.522217 21.999977,177.481171 
	C24.025352,185.751648 26.326815,194.023453 32.316048,200.365585 
	C40.127144,208.636932 49.837826,209.717758 60.298271,206.362549 
	C78.185333,200.625244 92.677994,189.344254 105.668175,176.494629 
	C119.454140,162.857834 132.508209,148.368713 144.803070,133.367599 
	C157.852951,117.445259 169.478271,100.360825 177.782532,81.344894 
	C183.067474,69.242889 182.754013,57.339504 174.584473,46.455093 
	C172.023346,43.042870 168.638229,40.249115 165.965546,37.069214 
	C169.913605,35.654659 173.467529,34.142021 177.148895,33.064903 
	C198.161301,26.916964 219.641174,23.506168 241.517075,23.092674 
	C250.722305,22.918680 259.946838,23.766331 269.084534,24.491657 
	C261.911713,35.188061 257.291168,46.517456 257.136292,59.148361 
	C256.904877,78.020615 264.346252,93.568825 278.481049,106.100868 
	C295.064941,120.804314 322.882965,124.330116 342.256531,113.769234 
	C359.571289,104.709183 370.460449,91.096489 374.188751,72.085197 
	C374.977966,68.060867 375.454559,63.975216 376.395508,60.059944 
	C390.198944,70.792526 403.682098,81.382973 416.993530,92.274063 
	C394.775116,107.012543 384.488922,126.984573 387.984650,153.534790 
	C391.459412,179.925629 416.514587,202.217407 443.084930,203.133347 
	C456.551117,203.597565 468.576660,199.895004 479.990906,193.614960 
	C486.421478,211.732498 488.958862,230.247696 490.664001,248.906189 
	C474.414276,237.730377 457.133392,233.726639 437.691803,238.980499 
	C407.393158,247.735916 389.675781,277.433258 396.037537,308.144287 
	C403.335999,343.377014 443.024231,364.809967 475.213989,350.759155 
	C475.952209,350.603302 476.433441,350.451721 476.943237,350.673767 
	C471.337921,367.880371 463.480804,383.662781 453.879822,398.536682 
	C444.920471,412.416565 435.550201,426.032043 422.900482,436.800964 
	C414.684418,425.290405 406.222961,414.513397 395.346436,405.741455 
	C380.212006,393.535583 363.216644,387.664886 343.873840,390.134583 
	C323.372711,392.752136 302.867493,395.530121 282.527130,399.153503 
	C266.124023,402.075439 250.174088,407.043030 236.358200,416.888672 
	C225.929062,424.320831 219.515747,434.093719 219.949402,447.582428 
	C220.323380,459.215515 224.896210,469.475677 231.317917,478.524048 
	C239.832748,490.521698 249.708847,501.553284 259.000000,513.000000 
	C246.979111,513.000000 234.958206,513.000000 222.704559,512.604980 
	C217.611115,511.415649 212.750443,510.621368 207.871429,509.493195 
	C207.185349,508.241974 206.612350,507.234192 205.835785,506.420685 
	C189.793228,489.614319 173.715363,472.841614 157.687073,456.021698 
	C156.230255,454.492950 155.062683,452.688568 154.107605,450.913086 
	C160.748444,447.318970 165.502151,442.338501 168.973160,435.630310 
	C176.458481,421.061615 174.739105,407.377747 166.810883,393.836212 
	C178.084381,387.180450 189.014175,380.626465 200.163010,374.469055 
	C205.544235,371.497009 209.404388,367.650574 211.242310,361.485413 
	C238.375046,351.326721 266.076996,345.726624 294.588898,346.418274 
	C311.108429,346.819061 327.563293,349.886536 344.352692,351.924866 
	C345.686676,353.380280 346.484833,355.008667 347.788757,355.881805 
	C351.128693,358.118256 354.471527,360.926788 358.219849,361.843231 
	C363.997986,363.255920 369.045898,360.686157 372.397278,355.669312 
	C376.244476,349.910156 375.527100,344.117737 372.164703,338.305908 
	C342.036194,286.229950 311.950562,234.129181 281.784790,181.697113 
	C276.429749,172.145004 271.157227,162.922791 265.851410,153.719788 
	C255.570541,135.887512 245.307251,118.044891 234.962341,100.249786 
	C230.421829,92.439301 221.909668,89.700539 214.456711,93.378647 
	C207.756393,96.685310 203.246033,106.255920 207.914505,114.241791 
	C208.707840,115.598862 208.777054,117.379250 208.987549,119.284927 
	C208.574463,120.052895 208.295624,120.480835 208.143127,120.949844 
	C194.079071,164.205276 169.124786,199.985779 133.689468,228.827301 
	C128.155823,226.951050 123.599449,228.354843 119.101685,230.977081 
	C103.073997,240.321350 87.125061,249.815933 70.859909,258.731079 
	C62.957062,263.062744 58.807968,268.769165 59.592552,277.970276 
	C53.281651,281.388275 47.311047,284.713837 41.206650,287.697784 
	C37.810047,281.869476 34.547230,276.382751 31.168537,270.561096 
	C23.534338,256.743378 13.548484,255.379059 3.127576,266.358551 
	C2.684725,266.825165 1.721051,266.797424 0.999999,267.000000 
z"/>
<path fill="#000000" opacity="1.000000" stroke="none" 
	d="
M20.946102,173.893478 
	C17.298958,184.175934 13.084616,194.299225 10.143186,204.779739 
	C6.150094,219.007431 3.078416,233.497742 2.925232,248.419769 
	C2.918228,249.102020 2.194655,249.776917 1.402414,250.227615 
	C1.000000,167.065811 1.000000,84.131615 1.000000,1.000000 
	C101.687477,1.000000 202.375076,1.000000 303.829102,1.303126 
	C303.045532,2.367383 301.495575,3.128514 299.554657,3.931242 
	C286.806213,7.193563 276.919769,14.088553 269.162598,24.149553 
	C259.946838,23.766331 250.722305,22.918680 241.517075,23.092674 
	C219.641174,23.506168 198.161301,26.916964 177.148895,33.064903 
	C173.467529,34.142021 169.913605,35.654659 165.557312,37.028557 
	C157.786789,39.959198 150.641190,42.570343 143.755615,45.745399 
	C125.385284,54.216286 107.839104,64.198067 92.781319,77.812386 
	C80.573738,88.849731 67.991623,99.802101 57.650143,112.483864 
	C46.754791,125.844841 38.063179,141.053635 28.944912,155.786942 
	C25.505672,161.344086 23.568178,167.830612 20.946102,173.893478 
z"/>
<path fill="#827DF9" opacity="1.000000" stroke="none" 
	d="
M259.463196,513.000000 
	C249.708847,501.553284 239.832748,490.521698 231.317917,478.524048 
	C224.896210,469.475677 220.323380,459.215515 219.949402,447.582428 
	C219.515747,434.093719 225.929062,424.320831 236.358200,416.888672 
	C250.174088,407.043030 266.124023,402.075439 282.527130,399.153503 
	C302.867493,395.530121 323.372711,392.752136 343.873840,390.134583 
	C363.216644,387.664886 380.212006,393.535583 395.346436,405.741455 
	C406.222961,414.513397 414.684418,425.290405 422.873230,437.148254 
	C416.783264,443.584991 410.989410,449.914856 404.266479,455.021515 
	C392.262299,464.139740 380.260040,473.493439 367.252014,481.009399 
	C338.463623,497.643219 307.422089,508.087708 274.091339,511.080231 
	C273.342804,511.147461 272.694885,512.335022 272.000000,513.000000 
	C267.975464,513.000000 263.950897,513.000000 259.463196,513.000000 
z"/>
<path fill="#000000" opacity="1.000000" stroke="none" 
	d="
M272.468689,513.000000 
	C272.694885,512.335022 273.342804,511.147461 274.091339,511.080231 
	C307.422089,508.087708 338.463623,497.643219 367.252014,481.009399 
	C380.260040,473.493439 392.262299,464.139740 404.266479,455.021515 
	C410.989410,449.914856 416.783264,443.584991 423.023010,437.458954 
	C435.550201,426.032043 444.920471,412.416565 453.879822,398.536682 
	C463.480804,383.662781 471.337921,367.880371 477.313477,350.542847 
	C478.880859,349.670593 480.244415,349.534668 481.311584,348.900269 
	C495.333832,340.564423 505.918915,329.347473 510.905579,313.435791 
	C511.199707,312.497253 512.283630,311.806213 513.000000,311.000000 
	C513.000000,378.266785 513.000000,445.533569 513.000000,513.000000 
	C432.979218,513.000000 352.958252,513.000000 272.468689,513.000000 
z"/>
<path fill="#000000" opacity="1.000000" stroke="none" 
	d="
M417.165253,91.973419 
	C403.682098,81.382973 390.198944,70.792526 376.362427,59.621696 
	C375.673706,56.290920 375.387817,53.533440 374.994690,50.791336 
	C373.155701,37.964283 367.226837,26.971214 358.275299,18.006012 
	C350.675049,10.394153 341.246765,5.203130 330.475067,2.915963 
	C329.874817,2.788511 329.486816,1.661663 329.000000,0.999994 
	C390.275452,1.000000 451.550903,1.000000 513.000000,1.000000 
	C513.000000,94.020821 513.000000,187.041748 512.671265,280.832336 
	C511.984375,281.264313 511.397095,280.981506 511.301331,280.581146 
	C508.208710,267.652313 501.117584,257.295135 491.011383,248.860092 
	C488.958862,230.247696 486.421478,211.732498 480.306427,193.453354 
	C483.751953,189.972610 486.903961,187.031815 490.363251,183.945526 
	C492.118195,182.229996 493.851410,180.839325 494.968323,179.061493 
	C503.642273,165.254852 508.187347,150.571976 505.075806,134.002792 
	C503.044678,123.186760 498.852112,113.523964 491.689880,105.236832 
	C482.420959,94.512169 470.718323,87.516594 456.728058,85.522568 
	C447.878845,84.261284 438.702332,83.765503 429.573730,87.086540 
	C425.180298,88.669548 421.172791,90.321487 417.165253,91.973419 
z"/>
<path fill="#000000" opacity="1.000000" stroke="none" 
	d="
M207.889755,509.827087 
	C212.750443,510.621368 217.611115,511.415649 222.235901,512.604980 
	C148.405319,513.000000 74.810646,513.000000 1.000000,513.000000 
	C1.000000,437.645905 1.000000,362.291626 1.399004,286.236481 
	C2.179512,286.040344 2.841963,286.514801 2.900126,287.054352 
	C3.697429,294.450409 4.411350,301.855408 5.113115,309.640564 
	C6.049582,314.430237 6.937236,318.857300 8.002028,323.241394 
	C12.437876,341.505249 18.059557,359.344086 27.171501,376.282715 
	C31.796984,384.787872 36.034515,393.165833 41.093925,401.013916 
	C49.465786,414.000214 58.473343,426.559967 70.059326,437.417847 
	C75.826561,443.030334 81.112114,448.803986 87.208672,453.531891 
	C98.171265,462.033447 109.620354,469.907684 121.014984,478.378479 
	C121.754608,478.961823 122.355309,479.189728 122.934807,479.462646 
	C135.367966,485.317932 147.640930,491.547791 160.270615,496.942566 
	C175.492615,503.444611 191.615005,507.010437 207.889755,509.827087 
z"/>
<path fill="#43C3FC" opacity="1.000000" stroke="none" 
	d="
M328.531372,0.999994 
	C329.486816,1.661663 329.874817,2.788511 330.475067,2.915963 
	C341.246765,5.203130 350.675049,10.394153 358.275299,18.006012 
	C367.226837,26.971214 373.155701,37.964283 374.994690,50.791336 
	C375.387817,53.533440 375.673706,56.290920 376.042084,59.479568 
	C375.454559,63.975216 374.977966,68.060867 374.188751,72.085197 
	C370.460449,91.096489 359.571289,104.709183 342.041565,113.518219 
	C341.059875,113.127533 340.641022,112.845551 340.184570,112.652344 
	C329.339996,108.062134 326.485229,103.018044 327.853607,91.376389 
	C328.026031,89.909142 327.181549,88.322357 326.976501,86.585709 
	C327.444550,86.192596 327.744293,86.004730 328.410583,85.820755 
	C340.659607,82.485863 350.079010,75.696426 356.326538,65.068817 
	C357.574066,62.946690 357.831268,58.910355 356.628754,56.906868 
	C350.929077,47.410706 343.074738,40.170925 331.761353,36.813480 
	C324.545197,35.775162 317.674835,34.887451 310.640564,33.721832 
	C304.546051,30.385563 300.404633,25.846754 299.900848,18.997330 
	C299.532532,13.989622 299.903931,8.927505 299.945618,3.889643 
	C301.495575,3.128514 303.045532,2.367383 304.297729,1.303126 
	C312.020905,1.000000 320.041809,1.000000 328.531372,0.999994 
z"/>
<path fill="#FEB334" opacity="1.000000" stroke="none" 
	d="
M490.664001,248.906189 
	C501.117584,257.295135 508.208710,267.652313 511.301331,280.581146 
	C511.397095,280.981506 511.984375,281.264313 512.671265,281.300964 
	C513.000000,290.687561 513.000000,300.375122 513.000000,310.531342 
	C512.283630,311.806213 511.199707,312.497253 510.905579,313.435791 
	C505.918915,329.347473 495.333832,340.564423 481.311584,348.900269 
	C480.244415,349.534668 478.880859,349.670593 477.284882,350.169189 
	C476.433441,350.451721 475.952209,350.603302 474.987366,350.527130 
	C466.025177,346.703766 464.577911,339.510620 464.987183,331.149780 
	C468.647247,324.478882 472.722931,319.707306 481.381104,320.956451 
	C486.047302,321.629700 488.924347,317.412842 488.966309,311.809021 
	C489.054718,300.010803 489.057953,288.210999 488.968079,276.412781 
	C488.919464,270.031494 485.797821,266.871552 479.493713,266.831787 
	C469.027191,266.765686 458.559540,266.875641 447.996765,266.736938 
	C447.901123,266.562469 447.722076,266.207123 447.904297,266.008209 
	C442.760956,261.830444 437.895996,257.386383 437.376953,250.268478 
	C437.105225,246.541656 437.817352,242.743103 438.085144,238.976944 
	C457.133392,233.726639 474.414276,237.730377 490.664001,248.906189 
z"/>
<path fill="#E8EEFF" opacity="1.000000" stroke="none" 
	d="
M0.999999,267.464661 
	C1.721051,266.797424 2.684725,266.825165 3.127576,266.358551 
	C13.548484,255.379059 23.534338,256.743378 30.849968,270.794495 
	C29.343382,278.611084 26.486649,284.975708 18.534388,286.485077 
	C14.452887,287.259796 10.040863,286.293152 5.533139,285.877502 
	C3.858716,284.094360 2.429361,282.547180 1.000003,281.000000 
	C1.000000,276.643097 1.000000,272.286194 0.999999,267.464661 
z"/>
<path fill="#766DF8" opacity="1.000000" stroke="none" 
	d="
M1.000003,281.416656 
	C2.429361,282.547180 3.858716,284.094360 5.615742,286.224792 
	C9.009776,292.261414 12.076140,297.714783 14.936114,303.437744 
	C11.535075,305.557617 8.340425,307.407928 5.145770,309.258240 
	C4.411350,301.855408 3.697429,294.450409 2.900126,287.054352 
	C2.841963,286.514801 2.179512,286.040344 1.399004,285.767822 
	C1.000000,284.611115 1.000000,283.222198 1.000003,281.416656 
z"/>
<path fill="#D3DCFB" opacity="1.000000" stroke="none" 
	d="
M344.047241,351.753906 
	C327.563293,349.886536 311.108429,346.819061 294.588898,346.418274 
	C266.076996,345.726624 238.375046,351.326721 211.209076,361.031647 
	C209.475861,356.809021 208.727051,352.611969 206.762848,349.093475 
	C196.303329,330.357147 185.539536,311.790710 174.943268,292.809937 
	C175.729507,291.605774 176.346161,290.626617 177.194275,289.928802 
	C185.103943,283.420929 193.445648,277.381042 200.912170,270.403076 
	C218.123108,254.318237 234.077454,237.067169 246.932205,217.172058 
	C250.230667,212.067093 253.671844,207.054337 257.393311,202.038483 
	C258.475189,202.694687 259.457642,203.168518 259.911255,203.949524 
	C271.161072,223.318970 282.350525,242.723480 293.559998,262.116394 
	C306.844299,285.098907 320.211975,308.033752 333.379944,331.082703 
	C337.222778,337.809082 340.506989,344.854675 344.047241,351.753906 
z"/>
<path fill="#827DF9" opacity="1.000000" stroke="none" 
	d="
M21.104431,174.252899 
	C23.568178,167.830612 25.505672,161.344086 28.944912,155.786942 
	C38.063179,141.053635 46.754791,125.844841 57.650143,112.483864 
	C67.991623,99.802101 80.573738,88.849731 92.781319,77.812386 
	C107.839104,64.198067 125.385284,54.216286 143.755615,45.745399 
	C150.641190,42.570343 157.786789,39.959198 165.222046,37.131611 
	C168.638229,40.249115 172.023346,43.042870 174.584473,46.455093 
	C182.754013,57.339504 183.067474,69.242889 177.782532,81.344894 
	C169.478271,100.360825 157.852951,117.445259 144.803070,133.367599 
	C132.508209,148.368713 119.454140,162.857834 105.668175,176.494629 
	C92.677994,189.344254 78.185333,200.625244 60.298271,206.362549 
	C49.837826,209.717758 40.127144,208.636932 32.316048,200.365585 
	C26.326815,194.023453 24.025352,185.751648 21.999977,177.481171 
	C21.765135,176.522217 21.509016,175.568466 21.104431,174.252899 
z"/>
<path fill="#BEC8F7" opacity="1.000000" stroke="none" 
	d="
M257.047455,201.999222 
	C253.671844,207.054337 250.230667,212.067093 246.932205,217.172058 
	C234.077454,237.067169 218.123108,254.318237 200.912170,270.403076 
	C193.445648,277.381042 185.103943,283.420929 177.194275,289.928802 
	C176.346161,290.626617 175.729507,291.605774 174.702637,292.643463 
	C173.989197,292.198517 173.578583,291.564484 173.073502,290.586487 
	C162.876434,272.695587 152.912582,255.065979 142.552185,237.672607 
	C140.522552,234.265198 136.957428,231.772400 134.100494,228.857773 
	C169.124786,199.985779 194.079071,164.205276 208.143127,120.949844 
	C208.295624,120.480835 208.574463,120.052895 209.309174,119.361008 
	C210.688568,120.092171 211.746490,120.955826 212.388214,122.061119 
	C220.274628,135.644745 228.056946,149.288834 235.954697,162.865799 
	C242.594101,174.279541 249.349548,185.625778 256.098083,197.364716 
	C256.444214,199.151428 256.745819,200.575317 257.047455,201.999222 
z"/>
<path fill="#E8EEFF" opacity="1.000000" stroke="none" 
	d="
M257.393311,202.038483 
	C256.745819,200.575317 256.444214,199.151428 256.404663,197.187805 
	C259.011139,192.819244 260.749298,188.382874 263.838440,185.300354 
	C268.790253,180.359116 275.320862,180.286331 281.852295,182.035706 
	C311.950562,234.129181 342.036194,286.229950 372.164703,338.305908 
	C375.527100,344.117737 376.244476,349.910156 372.397278,355.669312 
	C369.045898,360.686157 363.997986,363.255920 358.219849,361.843231 
	C354.471527,360.926788 351.128693,358.118256 347.788757,355.881805 
	C346.484833,355.008667 345.686676,353.380280 344.352692,351.924896 
	C340.506989,344.854675 337.222778,337.809082 333.379944,331.082703 
	C320.211975,308.033752 306.844299,285.098907 293.559998,262.116394 
	C282.350525,242.723480 271.161072,223.318970 259.911255,203.949524 
	C259.457642,203.168518 258.475189,202.694687 257.393311,202.038483 
z"/>
<path fill="#FF4256" opacity="1.000000" stroke="none" 
	d="
M173.167984,290.930481 
	C173.578583,291.564484 173.989197,292.198517 174.640411,292.998993 
	C185.539536,311.790710 196.303329,330.357147 206.762848,349.093475 
	C208.727051,352.611969 209.475861,356.809021 210.818756,361.146698 
	C209.404388,367.650574 205.544235,371.497009 200.163010,374.469055 
	C189.014175,380.626465 178.084381,387.180450 166.509583,393.896149 
	C159.936478,397.707489 153.918320,401.194061 147.506165,404.743286 
	C141.179871,406.653961 136.045410,404.628235 131.047058,401.202881 
	C124.975540,390.592041 119.041611,380.264252 112.994415,370.003235 
	C106.701630,359.325500 100.299431,348.712280 93.988701,338.020874 
	C94.032333,337.970917 94.122559,337.873688 94.457535,337.834717 
	C98.343735,330.362366 103.360840,325.854736 112.486420,329.275085 
	C116.264160,333.604126 119.658180,334.407410 124.577057,331.647217 
	C134.433823,326.116302 144.223816,320.458496 153.909576,314.633881 
	C159.284195,311.401794 159.809357,308.774750 157.296158,302.815857 
	C159.669403,296.025513 162.968735,291.001526 171.041565,291.885864 
	C171.707489,291.958771 172.457199,291.266968 173.167984,290.930481 
M174.818832,349.077911 
	C164.632812,354.997681 154.394943,360.830780 144.284500,366.876923 
	C139.805313,369.555511 138.648560,373.932587 140.918289,377.809814 
	C142.904648,381.203003 147.105850,382.174988 151.456100,379.723175 
	C161.573746,374.020691 171.553314,368.073608 181.607300,362.257629 
	C185.450867,360.034180 187.265076,356.564087 185.479919,352.635406 
	C183.687271,348.690216 180.098389,346.822021 174.818832,349.077911 
M163.489319,341.011475 
	C164.927673,340.181671 166.424164,339.437378 167.793518,338.506104 
	C171.912308,335.705017 173.323059,331.226501 171.235489,327.845184 
	C168.938278,324.124298 165.080231,323.225586 160.443756,325.792664 
	C150.568344,331.260345 140.810425,336.939941 130.987381,342.502686 
	C126.216766,345.204315 124.583611,349.577179 126.883362,353.703125 
	C128.917358,357.352295 133.622513,358.103455 138.224548,355.489380 
	C146.453445,350.815155 154.674637,346.127319 163.489319,341.011475 
z"/>
<path fill="#E80155" opacity="1.000000" stroke="none" 
	d="
M173.073502,290.586487 
	C172.457199,291.266968 171.707489,291.958771 171.041565,291.885864 
	C162.968735,291.001526 159.669403,296.025513 157.066772,302.543030 
	C153.038376,299.409729 149.520004,299.838928 145.676666,302.117371 
	C136.303741,307.673981 126.864677,313.124573 117.346596,318.428253 
	C112.993706,320.853790 111.196098,324.191620 112.239471,329.054413 
	C103.360840,325.854736 98.343735,330.362366 94.373306,337.497040 
	C82.613686,317.424835 71.273262,297.651306 59.932846,277.877808 
	C58.807968,268.769165 62.957062,263.062744 70.859909,258.731079 
	C87.125061,249.815933 103.073997,240.321350 119.101685,230.977081 
	C123.599449,228.354843 128.155823,226.951050 133.689468,228.827301 
	C136.957428,231.772400 140.522552,234.265198 142.552185,237.672607 
	C152.912582,255.065979 162.876434,272.695587 173.073502,290.586487 
M109.124352,259.606873 
	C102.104988,263.708374 95.022911,267.707550 88.092453,271.954163 
	C84.572388,274.111053 83.216522,277.376953 85.173698,281.327942 
	C87.121651,285.260315 91.428848,286.933136 95.196289,284.831390 
	C106.061363,278.769958 116.843048,272.551392 127.520927,266.166199 
	C131.275772,263.920868 132.061737,259.721954 130.040543,256.206512 
	C128.082001,252.800018 123.920609,251.506287 120.182182,253.398376 
	C116.631737,255.195343 113.218292,257.263000 109.124352,259.606873 
M114.710808,288.188934 
	C110.684456,290.529175 106.607498,292.787415 102.645195,295.231506 
	C98.181442,297.984894 97.024239,301.843353 99.282196,305.757874 
	C101.473747,309.557251 105.781952,310.641449 110.077957,308.203979 
	C120.204262,302.458527 130.305344,296.665527 140.328262,290.742279 
	C144.861450,288.063293 146.086685,283.924866 143.844299,280.246002 
	C141.300812,276.073181 137.438278,275.216217 132.663483,277.907654 
	C126.867920,281.174438 121.127335,284.538757 114.710808,288.188934 
z"/>
<path fill="#E80155" opacity="1.000000" stroke="none" 
	d="
M416.993530,92.274055 
	C421.172791,90.321487 425.180298,88.669548 429.528748,87.435188 
	C423.127777,98.669357 423.041382,108.959572 432.270813,118.532806 
	C432.602753,118.877113 432.755188,119.394485 432.576599,119.901024 
	C422.341431,120.280510 415.496918,125.519958 412.803741,134.789413 
	C410.373657,143.153366 413.758850,151.380630 421.294678,156.861359 
	C428.517181,162.114212 435.531677,167.668747 442.435608,173.336670 
	C445.519135,175.868164 447.791718,175.614151 450.631805,173.024780 
	C454.905396,169.128357 459.486572,165.569275 464.269440,162.053818 
	C465.079407,163.416855 465.760895,164.552643 466.002106,165.775269 
	C467.886627,175.327454 472.973419,180.596725 482.493439,182.648041 
	C485.001495,183.188446 487.534454,183.613174 490.056000,184.091019 
	C486.903961,187.031815 483.751953,189.972610 480.284363,193.075012 
	C468.576660,199.895004 456.551117,203.597565 443.084930,203.133347 
	C416.514587,202.217407 391.459412,179.925629 387.984650,153.534790 
	C384.488922,126.984573 394.775116,107.012543 416.993530,92.274055 
z"/>
<path fill="#FF4156" opacity="1.000000" stroke="none" 
	d="
M59.592552,277.970276 
	C71.273262,297.651306 82.613686,317.424835 94.038330,337.536011 
	C94.122559,337.873688 94.032333,337.970917 93.582870,337.940430 
	C86.188431,336.220215 79.317368,336.071289 72.853096,339.571899 
	C63.827316,344.459686 55.061916,349.853760 45.886127,354.431976 
	C36.548084,359.091187 29.299086,365.175568 27.152842,375.917389 
	C18.059557,359.344086 12.437876,341.505249 8.002028,323.241394 
	C6.937236,318.857300 6.049582,314.430237 5.113120,309.640594 
	C8.340425,307.407928 11.535075,305.557617 15.280334,303.368652 
	C24.334106,298.033112 32.837269,293.036224 41.340439,288.039368 
	C47.311047,284.713837 53.281651,281.388275 59.592552,277.970276 
z"/>
<path fill="#1BA9E8" opacity="1.000000" stroke="none" 
	d="
M299.554657,3.931241 
	C299.903931,8.927505 299.532532,13.989622 299.900848,18.997330 
	C300.404633,25.846754 304.546051,30.385563 310.280823,33.803719 
	C306.720886,35.157166 303.356750,36.150814 299.632019,37.121841 
	C289.789673,40.708225 282.369751,46.806366 276.735168,55.258377 
	C274.157410,59.125099 274.228607,62.571602 276.828064,66.298416 
	C282.390961,74.273857 289.401001,80.401192 298.478210,84.122650 
	C307.674683,87.892990 317.110962,88.598419 326.808197,86.790955 
	C327.181549,88.322357 328.026031,89.909142 327.853607,91.376389 
	C326.485229,103.018044 329.339996,108.062134 340.184570,112.652344 
	C340.641022,112.845551 341.059875,113.127533 341.711243,113.619171 
	C322.882965,124.330116 295.064941,120.804314 278.481049,106.100868 
	C264.346252,93.568825 256.904877,78.020615 257.136292,59.148361 
	C257.291168,46.517456 261.911713,35.188061 269.084534,24.491657 
	C276.919769,14.088553 286.806213,7.193563 299.554657,3.931241 
z"/>
<path fill="#FE9103" opacity="1.000000" stroke="none" 
	d="
M437.691803,238.980499 
	C437.817352,242.743103 437.105225,246.541656 437.376953,250.268478 
	C437.895996,257.386383 442.760956,261.830444 447.509216,266.066284 
	C445.051971,266.277710 443.171997,266.232147 440.814087,266.091125 
	C435.930786,266.106049 431.525360,266.216431 426.754242,266.483337 
	C421.181183,267.646759 418.827393,270.854736 418.850983,276.100769 
	C418.904602,288.041595 418.807007,299.983246 418.891998,311.923706 
	C418.935120,317.982422 421.928345,321.441467 427.793732,321.637360 
	C434.565826,321.863586 441.357605,321.500641 448.535217,321.449707 
	C453.971497,320.060394 455.769745,323.725800 457.970245,327.043457 
	C459.554626,329.432220 460.493591,333.236969 464.852539,331.436432 
	C464.577911,339.510620 466.025177,346.703766 474.730347,350.531372 
	C443.024231,364.809967 403.335999,343.377014 396.037537,308.144287 
	C389.675781,277.433258 407.393158,247.735916 437.691803,238.980499 
z"/>
<path fill="#D3DCFB" opacity="1.000000" stroke="none" 
	d="
M281.784790,181.697113 
	C275.320862,180.286331 268.790253,180.359116 263.838440,185.300354 
	C260.749298,188.382874 259.011139,192.819244 256.360168,196.824982 
	C249.349548,185.625778 242.594101,174.279541 235.954697,162.865799 
	C228.056946,149.288834 220.274628,135.644745 212.388214,122.061119 
	C211.746490,120.955826 210.688568,120.092171 209.502426,119.040154 
	C208.777054,117.379250 208.707840,115.598862 207.914505,114.241791 
	C203.246033,106.255920 207.756393,96.685310 214.456711,93.378647 
	C221.909668,89.700539 230.421829,92.439301 234.962341,100.249786 
	C245.307251,118.044891 255.570541,135.887512 265.851410,153.719788 
	C271.157227,162.922791 276.429749,172.145004 281.784790,181.697113 
z"/>
<path fill="#E9EFFF" opacity="1.000000" stroke="none" 
	d="
M207.871429,509.493195 
	C191.615005,507.010437 175.492615,503.444611 160.270615,496.942566 
	C147.640930,491.547791 135.367966,485.317932 122.934807,479.462646 
	C122.355309,479.189728 121.754608,478.961823 121.318382,478.103912 
	C121.647713,476.362915 121.944756,475.234528 121.978233,474.098419 
	C122.307022,462.943756 129.366104,454.209778 140.126221,452.213226 
	C144.331650,451.432953 148.677139,451.407562 153.160065,451.053925 
	C153.361282,451.069519 153.760803,451.012177 153.760803,451.012177 
	C155.062683,452.688568 156.230255,454.492950 157.687073,456.021698 
	C173.715363,472.841614 189.793228,489.614319 205.835785,506.420685 
	C206.612350,507.234192 207.185349,508.241974 207.871429,509.493195 
z"/>
<path fill="#BEC7F6" opacity="1.000000" stroke="none" 
	d="
M154.107605,450.913086 
	C153.760803,451.012177 153.361282,451.069519 153.029999,450.746277 
	C141.922607,439.235718 131.117783,428.075714 120.400070,416.832703 
	C118.715790,415.065857 117.426277,412.922729 116.162811,410.685333 
	C121.292557,407.449799 126.213715,404.482544 131.134872,401.515259 
	C136.045410,404.628235 141.179871,406.653961 147.534058,405.228943 
	C146.461594,424.280518 155.769608,432.573700 168.792282,435.946564 
	C165.502151,442.338501 160.748444,447.318970 154.107605,450.913086 
z"/>
<path fill="#D2DBFA" opacity="1.000000" stroke="none" 
	d="
M168.973160,435.630310 
	C155.769608,432.573700 146.461594,424.280518 147.928070,405.166260 
	C153.918320,401.194061 159.936478,397.707489 166.255920,394.161011 
	C174.739105,407.377747 176.458481,421.061615 168.973160,435.630310 
z"/>
<path fill="#D3DAFA" opacity="1.000000" stroke="none" 
	d="
M41.206650,287.697754 
	C32.837269,293.036224 24.334106,298.033112 15.486723,303.099060 
	C12.076140,297.714783 9.009776,292.261414 5.860809,286.460754 
	C10.040863,286.293152 14.452887,287.259796 18.534388,286.485077 
	C26.486649,284.975708 29.343382,278.611084 30.965847,271.129456 
	C34.547230,276.382751 37.810047,281.869476 41.206650,287.697754 
z"/>
<path fill="#FF4156" opacity="1.000000" stroke="none" 
	d="
M490.363251,183.945526 
	C487.534454,183.613174 485.001495,183.188446 482.493439,182.648041 
	C472.973419,180.596725 467.886627,175.327454 466.002106,165.775269 
	C465.760895,164.552643 465.079407,163.416855 464.313507,161.839600 
	C464.025116,161.438339 464.111694,161.007812 464.429718,160.894653 
	C467.398346,159.082535 470.176819,157.551819 472.675232,155.652649 
	C479.757935,150.268784 482.272461,141.208969 479.172333,132.924759 
	C476.185333,124.942986 467.856842,118.278709 459.831238,120.500832 
	C450.497009,123.085281 441.937378,123.671967 433.013306,120.123817 
	C433.003082,120.026520 432.991302,119.831207 432.991302,119.831207 
	C432.755188,119.394485 432.602753,118.877113 432.270813,118.532806 
	C423.041382,108.959572 423.127777,98.669357 429.914612,87.504112 
	C438.702332,83.765503 447.878845,84.261284 456.728058,85.522568 
	C470.718323,87.516594 482.420959,94.512169 491.689880,105.236832 
	C498.852112,113.523964 503.044678,123.186760 505.075806,134.002792 
	C508.187347,150.571976 503.642273,165.254852 494.968323,179.061493 
	C493.851410,180.839325 492.118195,182.229996 490.363251,183.945526 
z"/>
<path fill="#FF7186" opacity="1.000000" stroke="none" 
	d="
M131.047058,401.202881 
	C126.213715,404.482544 121.292557,407.449799 115.818222,410.745483 
	C100.157753,419.751831 85.050446,428.429779 69.943146,437.107727 
	C58.473343,426.559967 49.465786,414.000214 41.093925,401.013916 
	C36.034515,393.165833 31.796984,384.787872 27.171501,376.282715 
	C29.299086,365.175568 36.548084,359.091187 45.886127,354.431976 
	C55.061916,349.853760 63.827316,344.459686 72.853096,339.571899 
	C79.317368,336.071289 86.188431,336.220215 93.539238,337.990356 
	C100.299431,348.712280 106.701630,359.325500 112.994415,370.003235 
	C119.041611,380.264252 124.975540,390.592041 131.047058,401.202881 
z"/>
<path fill="#D3DCFB" opacity="1.000000" stroke="none" 
	d="
M70.059326,437.417847 
	C85.050446,428.429779 100.157753,419.751831 115.609634,411.013733 
	C117.426277,412.922729 118.715790,415.065857 120.400070,416.832703 
	C131.117783,428.075714 141.922607,439.235718 152.828781,450.730713 
	C148.677139,451.407562 144.331650,451.432953 140.126221,452.213226 
	C129.366104,454.209778 122.307022,462.943756 121.978233,474.098419 
	C121.944756,475.234528 121.647713,476.362915 121.169586,477.769470 
	C109.620354,469.907684 98.171265,462.033447 87.208672,453.531891 
	C81.112114,448.803986 75.826561,443.030334 70.059326,437.417847 
z"/>
<path fill="#BCC7F6" opacity="1.000000" stroke="none" 
	d="
M326.976501,86.585709 
	C317.110962,88.598419 307.674683,87.892990 298.478210,84.122650 
	C289.401001,80.401192 282.390961,74.273857 276.828064,66.298416 
	C274.228607,62.571602 274.157410,59.125099 276.735168,55.258377 
	C282.369751,46.806366 289.789673,40.708225 299.601776,37.479286 
	C290.628815,54.062229 301.619965,68.412094 314.662048,69.513474 
	C317.404419,69.745071 320.216797,69.147713 323.006287,69.350510 
	C320.821808,76.330681 322.886261,81.558395 328.044067,85.816864 
	C327.744293,86.004730 327.444550,86.192596 326.976501,86.585709 
z"/>
<path fill="#494981" opacity="1.000000" stroke="none" 
	d="
M322.996918,68.932327 
	C320.216797,69.147713 317.404419,69.745071 314.662048,69.513474 
	C301.619965,68.412094 290.628815,54.062229 299.962402,37.501907 
	C303.356750,36.150814 306.720886,35.157166 310.444763,34.081627 
	C317.674835,34.887451 324.545197,35.775162 331.881409,37.144073 
	C333.651001,41.803986 335.866577,45.938580 336.071350,50.170471 
	C336.518341,59.409809 330.646423,64.956635 322.996918,68.932327 
M323.944916,53.533134 
	C328.543182,52.552666 329.830475,49.032814 328.763794,45.322605 
	C328.156403,43.209896 325.559845,40.922928 323.365295,40.187107 
	C320.053680,39.076740 316.177185,40.142586 315.703430,44.155773 
	C315.391937,46.793858 316.846466,49.916721 318.292908,52.358871 
	C318.929230,53.433235 321.512878,53.354214 323.944916,53.533134 
z"/>
<path fill="#E7EEFE" opacity="1.000000" stroke="none" 
	d="
M323.006287,69.350510 
	C330.646423,64.956635 336.518341,59.409809 336.071350,50.170471 
	C335.866577,45.938580 333.651001,41.803986 332.227234,37.294678 
	C343.074738,40.170925 350.929077,47.410706 356.628754,56.906868 
	C357.831268,58.910355 357.574066,62.946690 356.326538,65.068817 
	C350.079010,75.696426 340.659607,82.485863 328.410583,85.820755 
	C322.886261,81.558395 320.821808,76.330681 323.006287,69.350510 
z"/>
<path fill="#E9EFFE" opacity="1.000000" stroke="none" 
	d="
M464.987183,331.149780 
	C460.493591,333.236969 459.554626,329.432220 457.970245,327.043457 
	C455.769745,323.725800 453.971497,320.060394 448.349609,321.125732 
	C443.985626,318.411560 442.835876,315.016327 442.924713,310.635986 
	C443.146118,299.718719 443.197357,288.788605 442.905182,277.874664 
	C442.777435,273.102295 444.096161,269.496887 448.092377,266.911438 
	C458.559540,266.875641 469.027191,266.765686 479.493713,266.831787 
	C485.797821,266.871552 488.919464,270.031494 488.968079,276.412781 
	C489.057953,288.210999 489.054718,300.010803 488.966309,311.809021 
	C488.924347,317.412842 486.047302,321.629700 481.381104,320.956451 
	C472.722931,319.707306 468.647247,324.478882 464.987183,331.149780 
z"/>
<path fill="#BFC8F5" opacity="1.000000" stroke="none" 
	d="
M447.996765,266.736938 
	C444.096161,269.496887 442.777435,273.102295 442.905182,277.874664 
	C443.197357,288.788605 443.146118,299.718719 442.924713,310.635986 
	C442.835876,315.016327 443.985626,318.411560 447.955200,321.069489 
	C441.357605,321.500641 434.565826,321.863586 427.793732,321.637360 
	C421.928345,321.441467 418.935120,317.982422 418.891998,311.923706 
	C418.807007,299.983246 418.904602,288.041595 418.850983,276.100769 
	C418.827393,270.854736 421.181183,267.646759 427.187439,266.619019 
	C432.421539,266.461029 436.856781,266.323792 441.291992,266.186584 
	C443.171997,266.232147 445.051971,266.277710 447.327026,266.265198 
	C447.722076,266.207123 447.901123,266.562469 447.996765,266.736938 
z"/>
<path fill="#FF6F85" opacity="1.000000" stroke="none" 
	d="
M112.486420,329.275085 
	C111.196098,324.191620 112.993706,320.853790 117.346596,318.428253 
	C126.864677,313.124573 136.303741,307.673981 145.676666,302.117371 
	C149.520004,299.838928 153.038376,299.409729 156.798859,302.766113 
	C159.809357,308.774750 159.284195,311.401794 153.909576,314.633881 
	C144.223816,320.458496 134.433823,326.116302 124.577057,331.647217 
	C119.658180,334.407410 116.264160,333.604126 112.486420,329.275085 
z"/>
<path fill="#FF7085" opacity="1.000000" stroke="none" 
	d="
M175.169876,348.919312 
	C180.098389,346.822021 183.687271,348.690216 185.479919,352.635406 
	C187.265076,356.564087 185.450867,360.034180 181.607300,362.257629 
	C171.553314,368.073608 161.573746,374.020691 151.456100,379.723175 
	C147.105850,382.174988 142.904648,381.203003 140.918289,377.809814 
	C138.648560,373.932587 139.805313,369.555511 144.284500,366.876923 
	C154.394943,360.830780 164.632812,354.997681 175.169876,348.919312 
z"/>
<path fill="#FF7085" opacity="1.000000" stroke="none" 
	d="
M163.194183,341.228333 
	C154.674637,346.127319 146.453445,350.815155 138.224548,355.489380 
	C133.622513,358.103455 128.917358,357.352295 126.883362,353.703125 
	C124.583611,349.577179 126.216766,345.204315 130.987381,342.502686 
	C140.810425,336.939941 150.568344,331.260345 160.443756,325.792664 
	C165.080231,323.225586 168.938278,324.124298 171.235489,327.845184 
	C173.323059,331.226501 171.912308,335.705017 167.793518,338.506104 
	C166.424164,339.437378 164.927673,340.181671 163.194183,341.228333 
z"/>
<path fill="#FE6E85" opacity="1.000000" stroke="none" 
	d="
M109.434479,259.409241 
	C113.218292,257.263000 116.631737,255.195343 120.182182,253.398376 
	C123.920609,251.506287 128.082001,252.800018 130.040543,256.206512 
	C132.061737,259.721954 131.275772,263.920868 127.520927,266.166199 
	C116.843048,272.551392 106.061363,278.769958 95.196289,284.831390 
	C91.428848,286.933136 87.121651,285.260315 85.173698,281.327942 
	C83.216522,277.376953 84.572388,274.111053 88.092453,271.954163 
	C95.022911,267.707550 102.104988,263.708374 109.434479,259.409241 
z"/>
<path fill="#FF6F85" opacity="1.000000" stroke="none" 
	d="
M115.036880,288.024902 
	C121.127335,284.538757 126.867920,281.174438 132.663483,277.907654 
	C137.438278,275.216217 141.300812,276.073181 143.844299,280.246002 
	C146.086685,283.924866 144.861450,288.063293 140.328262,290.742279 
	C130.305344,296.665527 120.204262,302.458527 110.077957,308.203979 
	C105.781952,310.641449 101.473747,309.557251 99.282196,305.757874 
	C97.024239,301.843353 98.181442,297.984894 102.645195,295.231506 
	C106.607498,292.787415 110.684456,290.529175 115.036880,288.024902 
z"/>
<path fill="#BFC7F6" opacity="1.000000" stroke="none" 
	d="
M464.111694,161.007812 
	C464.111694,161.007812 464.025116,161.438339 463.981049,161.652557 
	C459.486572,165.569275 454.905396,169.128357 450.631805,173.024780 
	C447.791718,175.614151 445.519135,175.868164 442.435608,173.336670 
	C435.531677,167.668747 428.517181,162.114212 421.294678,156.861359 
	C413.758850,151.380630 410.373657,143.153366 412.803741,134.789413 
	C415.496918,125.519958 422.341431,120.280510 432.576599,119.901016 
	C432.991302,119.831207 433.003082,120.026520 433.008545,120.531624 
	C430.266571,130.444092 435.125458,135.520935 442.560883,140.391922 
	C448.205566,144.089783 452.452728,149.909149 457.368164,154.737274 
	C459.557159,156.887375 461.860352,158.921204 464.111694,161.007812 
z"/>
<path fill="#FEB334" opacity="1.000000" stroke="none" 
	d="
M440.814087,266.091095 
	C436.856781,266.323792 432.421539,266.461029 427.553131,266.462555 
	C431.525360,266.216431 435.930786,266.106049 440.814087,266.091095 
z"/>
<path fill="#E9EDFD" opacity="1.000000" stroke="none" 
	d="
M464.429718,160.894653 
	C461.860352,158.921204 459.557159,156.887375 457.368164,154.737274 
	C452.452728,149.909149 448.205566,144.089783 442.560883,140.391922 
	C435.125458,135.520935 430.266571,130.444092 433.018799,120.628922 
	C441.937378,123.671967 450.497009,123.085281 459.831238,120.500832 
	C467.856842,118.278709 476.185333,124.942986 479.172333,132.924759 
	C482.272461,141.208969 479.757935,150.268784 472.675232,155.652649 
	C470.176819,157.551819 467.398346,159.082535 464.429718,160.894653 
z"/>
<path fill="#5E5E9A" opacity="1.000000" stroke="none" 
	d="
M323.578674,53.666000 
	C321.512878,53.354214 318.929230,53.433235 318.292908,52.358871 
	C316.846466,49.916721 315.391937,46.793858 315.703430,44.155773 
	C316.177185,40.142586 320.053680,39.076740 323.365295,40.187107 
	C325.559845,40.922928 328.156403,43.209896 328.763794,45.322605 
	C329.830475,49.032814 328.543182,52.552666 323.578674,53.666000 
z"/>
</svg>