<svg version="1.1" id="Layer_1" xmlns="http://www.w3.org/2000/svg" xmlns:xlink="http://www.w3.org/1999/xlink" x="0px" y="0px"
	 width="100%" viewBox="0 0 512 512" enable-background="new 0 0 512 512" xml:space="preserve">
<path fill="#000000" opacity="1.000000" stroke="none" 
	d="
M290.000000,513.000000 
	C193.356796,513.000000 97.213585,513.000000 1.035192,513.000000 
	C1.035192,342.398438 1.035192,171.796860 1.035192,1.097646 
	C171.559891,1.097646 342.119843,1.097646 512.839905,1.097646 
	C512.839905,171.666550 512.839905,342.333252 512.839905,513.000000 
	C438.796844,513.000000 364.648407,513.000000 290.000000,513.000000 
M233.695908,233.758087 
	C231.470947,237.145508 228.638092,240.287918 227.152618,243.973373 
	C224.400131,250.802383 222.435364,257.948914 219.839905,264.354767 
	C210.068329,250.537735 187.319641,251.805023 178.164948,266.984650 
	C173.368515,274.937714 169.883545,283.065491 167.200455,291.621277 
	C165.466095,285.384186 163.776932,279.134094 161.987198,272.912933 
	C158.989197,262.491852 156.637848,251.812439 152.717911,241.746613 
	C147.426254,228.158417 136.766907,219.716400 123.776237,215.043304 
	C130.623047,213.643448 136.790268,210.578262 141.104401,205.204391 
	C150.003632,194.119095 152.049210,181.467834 145.675812,168.669525 
	C139.545486,156.359375 128.638916,150.615585 114.914246,151.136444 
	C110.943405,151.287140 108.135529,150.067062 105.223732,147.775528 
	C95.945282,140.473587 85.015251,138.300369 73.846252,140.358688 
	C56.379044,143.577713 42.251747,156.365662 40.911488,176.459000 
	C40.841267,177.511749 39.933353,178.836029 39.022186,179.455261 
	C28.461149,186.632599 24.396292,196.666183 24.918928,209.217087 
	C25.407824,220.957672 31.232124,229.219208 40.878662,234.871429 
	C51.357796,241.011475 62.241203,240.546417 72.978806,235.898010 
	C67.984215,245.734024 65.150887,256.045197 68.117645,266.975861 
	C69.882790,273.479248 72.771072,279.677765 74.811821,286.698700 
	C70.616806,294.598694 73.729401,299.730988 83.007042,300.827850 
	C84.966805,305.186676 86.926559,309.545532 88.215767,314.249664 
	C87.477699,315.989685 86.267502,317.681976 86.085754,319.478271 
	C85.408333,326.173553 88.550125,328.841980 97.218964,329.737457 
	C99.781647,334.800171 102.344330,339.862885 103.983376,344.990784 
	C77.745384,344.990784 51.507393,344.990784 25.165333,344.990784 
	C25.165333,361.400818 25.165333,377.190735 25.023928,393.910919 
	C25.071077,409.613464 25.118229,425.315979 25.020487,441.943665 
	C25.020487,457.538452 25.020487,473.133240 25.020487,488.705933 
	C179.971619,488.705933 334.337463,488.705933 488.834656,488.705933 
	C488.834656,472.614716 488.834656,456.816711 488.976044,440.088470 
	C488.928925,424.385803 488.881805,408.683105 488.979523,392.055542 
	C488.979523,376.461670 488.979523,360.867767 488.979523,344.834564 
	C467.600128,344.834564 446.802612,344.834564 426.003113,343.944733 
	C425.421112,332.092651 429.643250,321.752625 436.867584,312.096375 
	C443.125366,312.290771 449.660980,313.755768 455.592621,312.458710 
	C480.727448,306.962524 493.412018,282.494141 484.453278,257.708405 
	C483.839691,256.010803 483.789276,253.507767 484.608154,251.989380 
	C491.270264,239.636551 491.488129,227.434998 482.843018,216.226135 
	C479.423920,211.793015 479.024963,207.519821 478.945465,202.529816 
	C478.716125,188.136108 468.019440,177.642365 454.883179,175.177124 
	C452.237396,174.680588 451.040833,173.695129 449.649689,171.686737 
	C435.017548,150.561752 414.354004,142.078033 389.433533,145.298035 
	C371.771515,147.580170 357.898254,157.268066 347.904358,172.241959 
	C347.065277,173.499191 345.331665,174.667770 343.854279,174.911484 
	C330.017395,177.193970 318.458557,189.122086 319.127869,203.231522 
	C319.419159,209.371628 317.688446,214.095062 313.021820,217.133942 
	C312.963409,214.807495 312.904999,212.481064 313.208099,209.375549 
	C313.622467,204.946732 313.293488,200.286758 314.585693,196.130890 
	C319.093201,181.634293 323.847961,167.196671 329.091919,152.951294 
	C336.470978,132.905838 344.319855,113.032150 352.101257,93.137199 
	C353.316345,90.030617 353.113739,88.294037 349.604462,87.259605 
	C343.736755,85.529968 337.921112,83.598564 332.166016,81.523361 
	C329.508057,80.564949 328.081940,81.344772 327.151031,83.793892 
	C322.804108,95.230606 318.515778,106.690460 314.055542,118.082924 
	C311.181305,125.424355 308.045776,132.663467 305.009125,139.018692 
	C305.005920,102.883469 304.965698,66.748146 305.055573,30.613153 
	C305.064758,26.911718 304.689117,24.663465 300.047668,24.906464 
	C293.072876,25.271624 286.049164,25.285412 279.076294,24.902067 
	C274.290344,24.638950 272.869598,26.129566 272.894104,30.988707 
	C273.076843,67.289391 272.975067,103.591507 272.373077,139.530136 
	C265.246979,121.165878 258.073303,102.819794 251.043625,84.418701 
	C249.928314,81.499245 248.632385,80.495193 245.486084,81.664940 
	C240.050629,83.685730 234.535339,85.558861 228.934494,87.045364 
	C224.829880,88.134750 224.645325,90.167633 225.985657,93.607445 
	C235.424149,117.830559 244.443314,142.222397 254.234482,166.300873 
	C260.612122,181.984726 264.973999,197.918854 264.176941,215.040451 
	C257.116791,218.415634 250.056625,221.790817 242.410095,224.758438 
	C230.365036,197.999405 212.977722,199.708267 190.046249,201.961670 
	C192.056778,206.024918 194.041122,209.996490 195.991226,213.984802 
	C199.529007,221.220215 205.016296,226.329224 212.132950,230.148804 
	C219.181976,233.932098 226.667221,232.547989 233.695908,233.758087 
z"/>
<path fill="#02A437" opacity="1.000000" stroke="none" 
	d="
M313.169189,217.997559 
	C317.688446,214.095062 319.419159,209.371628 319.127869,203.231522 
	C318.458557,189.122086 330.017395,177.193970 343.854279,174.911484 
	C345.331665,174.667770 347.065277,173.499191 347.904358,172.241959 
	C357.898254,157.268066 371.771515,147.580170 389.433533,145.298035 
	C414.354004,142.078033 435.017548,150.561752 449.649689,171.686737 
	C451.040833,173.695129 452.237396,174.680588 454.883179,175.177124 
	C468.019440,177.642365 478.716125,188.136108 478.945465,202.529816 
	C479.024963,207.519821 479.423920,211.793015 482.843018,216.226135 
	C491.488129,227.434998 491.270264,239.636551 484.608154,251.989380 
	C483.789276,253.507767 483.839691,256.010803 484.453278,257.708405 
	C493.412018,282.494141 480.727448,306.962524 455.592621,312.458710 
	C449.660980,313.755768 443.125366,312.290771 436.192444,311.853882 
	C433.563080,310.692200 431.525391,309.915283 429.670380,308.827026 
	C424.184845,305.608978 418.625183,302.709137 411.825684,302.683105 
	C407.407349,300.415649 403.158966,298.464722 398.655792,296.396820 
	C396.063202,297.808594 393.081116,299.432434 389.706940,301.058624 
	C380.778961,303.367096 372.116333,305.365356 364.609497,311.193420 
	C340.660187,317.682312 321.588074,307.600922 313.100677,287.586670 
	C310.968414,278.162537 310.286865,269.252716 312.826752,260.096191 
	C314.107880,255.477753 313.423676,250.667114 311.231323,245.931976 
	C307.872467,238.677460 308.341766,231.051895 311.245911,223.597702 
	C311.961853,221.760147 312.532013,219.865799 313.169189,217.997559 
M379.942017,175.393906 
	C376.506287,179.766434 372.530548,183.827789 369.782440,188.596558 
	C366.869568,193.651276 368.631653,197.867737 373.348022,200.140411 
	C377.480408,202.131683 381.072113,200.077606 384.265961,195.205750 
	C386.454559,191.867371 389.264435,188.268021 392.683411,186.537521 
	C400.907196,182.375092 409.646484,186.392105 413.967773,195.368149 
	C416.160889,199.923615 420.083008,201.911087 423.984711,200.444077 
	C428.670380,198.682327 430.435150,194.675079 428.726837,189.596481 
	C422.714294,171.721695 398.677032,161.845078 379.942017,175.393906 
M337.212738,243.021011 
	C341.820221,251.264954 348.464600,256.559021 358.201172,256.941132 
	C363.361633,257.143616 366.751709,253.980881 366.957581,249.370926 
	C367.155640,244.935013 364.319458,242.013336 359.465057,240.947052 
	C357.154236,240.439453 354.166504,239.649506 353.045166,237.955154 
	C351.689392,235.906570 350.852386,232.171997 351.858185,230.247498 
	C353.079193,227.911209 356.247070,225.842224 358.946411,225.179138 
	C365.290039,223.620850 368.602142,219.089417 366.294189,213.773590 
	C364.497375,209.635178 360.093994,208.112625 354.286041,209.425293 
	C340.257477,212.595886 330.536285,228.137405 337.212738,243.021011 
z"/>
<path fill="#FBB540" opacity="1.000000" stroke="none" 
	d="
M426.005096,344.834564 
	C446.802612,344.834564 467.600128,344.834564 488.979523,344.834564 
	C488.979523,360.867767 488.979523,376.461670 488.448975,392.522644 
	C333.667419,392.986694 179.416367,392.983673 25.165333,392.980652 
	C25.165333,377.190735 25.165333,361.400818 25.165333,344.990784 
	C51.507393,344.990784 77.745384,344.990784 104.918121,344.977844 
	C131.599396,344.952545 157.345932,344.940155 183.481461,344.959412 
	C184.907822,344.942871 185.945175,344.894684 187.449829,344.897125 
	C215.210648,344.917450 242.504166,344.887115 270.279175,344.908844 
	C290.416962,344.928131 310.073212,344.895386 330.215149,344.922729 
	C345.799347,344.933411 360.897919,344.883972 376.460846,344.903625 
	C393.285156,344.926666 409.645142,344.880615 426.005096,344.834564 
M64.514542,360.995361 
	C62.025665,361.003265 59.529415,360.891571 57.049488,361.044556 
	C52.236191,361.341583 49.111797,364.469269 49.041485,368.866516 
	C48.970871,373.282104 52.047318,376.712860 56.787548,376.912781 
	C62.253052,377.143219 67.743195,377.143494 73.208687,376.912903 
	C77.953644,376.712677 81.030495,373.283691 80.958145,368.868866 
	C80.886116,364.473236 77.759903,361.343018 72.948730,361.044739 
	C70.468910,360.891052 67.972588,361.003265 64.514542,360.995361 
M264.973602,376.980743 
	C270.691376,375.793365 273.438843,372.721741 272.917145,368.100098 
	C272.414246,363.645142 269.160950,361.097839 263.670197,361.014709 
	C259.020996,360.944336 254.367340,360.907288 249.720322,361.030914 
	C244.283600,361.175507 240.919449,364.437622 241.041595,369.202606 
	C241.158524,373.763611 244.429047,376.825287 249.631226,376.965363 
	C254.444122,377.095001 259.263153,376.996246 264.973602,376.980743 
M464.186340,372.416199 
	C465.749329,366.220337 463.520325,361.622742 458.085205,361.218048 
	C451.970978,360.762848 445.713440,360.567139 439.686279,361.431030 
	C437.290863,361.774384 434.072449,364.990417 433.554871,367.398590 
	C433.036865,369.808685 434.779114,373.460144 436.691315,375.454712 
	C439.360352,378.238800 458.616791,377.633636 461.830719,375.309967 
	C462.615204,374.742737 463.169250,373.856812 464.186340,372.416199 
z"/>
<path fill="#EA9D2D" opacity="1.000000" stroke="none" 
	d="
M25.094631,393.445801 
	C179.416367,392.983673 333.667419,392.986694 488.376556,392.985077 
	C488.881805,408.683105 488.928925,424.385803 488.447235,440.549133 
	C333.667419,441.012726 179.416397,441.015625 25.165380,441.018524 
	C25.118229,425.315979 25.071077,409.613464 25.094631,393.445801 
M78.920341,411.591217 
	C76.827850,410.732269 74.777023,409.283234 72.634567,409.131927 
	C67.499725,408.769348 62.317249,408.882233 57.162586,409.056793 
	C52.268364,409.222565 49.162338,412.335632 49.041397,416.773895 
	C48.915073,421.409912 52.118641,424.760712 57.211258,424.946167 
	C62.032673,425.121674 66.866547,425.068420 71.692482,424.980713 
	C79.743919,424.834412 82.837624,419.666199 78.920341,411.591217 
M244.964127,423.895386 
	C251.392685,424.261230 257.818298,424.839264 264.250671,424.928070 
	C269.725647,425.003662 273.066132,421.621124 272.958313,416.816223 
	C272.854645,412.195557 269.637878,409.178467 264.381104,409.035461 
	C259.724060,408.908783 255.060287,409.054535 250.400864,408.986023 
	C246.616882,408.930420 243.408173,409.941284 241.793793,413.659088 
	C240.130890,417.488678 241.073196,420.803101 244.964127,423.895386 
M435.644104,422.968414 
	C437.647003,423.642639 439.623505,424.783661 441.658020,424.898682 
	C446.636139,425.180115 451.644867,425.108856 456.634094,424.952240 
	C461.807312,424.789825 465.000671,421.577728 464.958344,416.927826 
	C464.916168,412.295807 461.705017,409.195374 456.490265,409.039948 
	C451.833130,408.901093 447.167755,408.942352 442.507751,409.014740 
	C433.925323,409.148041 430.740295,414.934723 435.644104,422.968414 
z"/>
<path fill="#FBB540" opacity="1.000000" stroke="none" 
	d="
M25.092934,441.481079 
	C179.416397,441.015625 333.667419,441.012726 488.376526,441.014282 
	C488.834656,456.816711 488.834656,472.614716 488.834656,488.705933 
	C334.337463,488.705933 179.971619,488.705933 25.020487,488.705933 
	C25.020487,473.133240 25.020487,457.538452 25.092934,441.481079 
M73.850983,472.926483 
	C79.208588,471.188873 81.583290,468.077240 80.876907,463.720276 
	C80.192329,459.497803 77.025391,457.098999 71.784645,457.017273 
	C66.969048,456.942200 62.146950,456.883270 57.335587,457.047638 
	C52.214390,457.222626 48.985935,460.489410 49.041553,465.091064 
	C49.096931,469.672913 52.349152,472.817566 57.521252,472.958954 
	C62.666302,473.099640 67.818359,472.983978 73.850983,472.926483 
M242.598236,460.215149 
	C239.165466,467.611481 242.284561,472.830627 250.311157,472.982422 
	C255.131836,473.073608 259.960876,473.125977 264.776917,472.947235 
	C269.834198,472.759521 273.085815,469.361786 272.958130,464.775635 
	C272.835785,460.380066 269.690002,457.226227 264.828217,457.056763 
	C259.679413,456.877319 254.501968,456.766571 249.372894,457.130951 
	C247.233795,457.282898 245.187408,458.739746 242.598236,460.215149 
M433.041229,464.618561 
	C433.976379,470.730438 436.200226,472.862640 442.060150,472.978668 
	C446.880402,473.074127 451.707703,473.106934 456.525452,472.958496 
	C461.690735,472.799347 464.941040,469.620697 464.958160,465.028412 
	C464.975311,460.424622 461.739380,457.211365 456.583282,457.044403 
	C451.766022,456.888458 446.939758,457.028534 442.117798,456.994171 
	C437.340729,456.960114 434.166260,458.986938 433.041229,464.618561 
z"/>
<path fill="#FD9226" opacity="1.000000" stroke="none" 
	d="
M183.092453,344.927795 
	C157.345932,344.940155 131.599396,344.952545 105.379944,344.945251 
	C102.344330,339.862885 99.781647,334.800171 97.317703,329.155731 
	C98.442795,328.049103 99.431480,327.425964 100.501747,327.015564 
	C106.382324,324.760406 112.348511,322.714233 118.155602,320.286163 
	C122.729324,318.373779 124.281044,314.307648 122.612114,309.559662 
	C121.094589,305.242432 117.562912,304.609924 113.696098,305.176971 
	C111.761177,305.460724 109.903412,306.326141 108.034630,306.995209 
	C101.646149,309.282288 95.268265,311.598999 88.886322,313.904358 
	C86.926559,309.545532 84.966805,305.186676 83.242584,300.224487 
	C88.705872,297.531067 93.988129,295.565796 99.144783,293.312988 
	C103.573242,291.378296 105.207680,287.404694 103.724289,283.062897 
	C102.356796,279.060364 97.989769,276.844879 93.530983,278.476135 
	C87.317924,280.749298 81.271919,283.479065 75.154411,286.013367 
	C72.771072,279.677765 69.882790,273.479248 68.117645,266.975861 
	C65.150887,256.045197 67.984215,245.734024 73.291275,235.386841 
	C74.740097,233.531860 75.876442,232.188065 77.296608,230.689270 
	C88.232941,218.063507 101.906456,213.349594 118.391113,214.892242 
	C120.201141,215.045090 121.600754,215.105621 123.000366,215.166153 
	C136.766907,219.716400 147.426254,228.158417 152.717911,241.746613 
	C156.637848,251.812439 158.989197,262.491852 161.987198,272.912933 
	C163.776932,279.134094 165.466095,285.384186 167.576660,292.261963 
	C166.896133,308.127258 172.898651,321.283295 180.016876,334.502441 
	C181.034988,338.239624 182.063721,341.583710 183.092453,344.927795 
M119.980156,269.599213 
	C116.513924,275.964905 119.665825,282.947052 126.126350,281.671234 
	C133.260513,280.262360 140.133011,276.863770 146.640579,273.425476 
	C148.219788,272.591095 149.204514,267.483124 148.165344,265.624969 
	C146.815186,263.210724 142.623291,260.169647 140.609802,260.744476 
	C133.675369,262.724152 127.156723,266.160309 119.980156,269.599213 
M142.429916,293.789581 
	C138.722641,296.234100 135.645142,299.033783 138.081070,303.997986 
	C140.460846,308.847656 143.837540,309.916107 149.874969,307.859711 
	C152.231201,307.057190 154.642380,306.240021 156.774353,304.994446 
	C160.365372,302.896393 161.688370,299.590820 160.209152,295.622650 
	C158.685593,291.535583 154.590927,289.486603 150.585022,290.681824 
	C148.039978,291.441162 145.588226,292.513214 142.429916,293.789581 
z"/>
<path fill="#E82F3E" opacity="1.000000" stroke="none" 
	d="
M180.027496,334.109283 
	C172.898651,321.283295 166.896133,308.127258 167.910156,292.443481 
	C169.883545,283.065491 173.368515,274.937714 178.164948,266.984650 
	C187.319641,251.805023 210.068329,250.537735 220.076019,264.992065 
	C226.057358,272.889008 234.711868,271.609161 238.473557,262.827271 
	C238.905975,262.104340 239.002914,261.547333 239.053543,260.998657 
	C239.007233,261.006989 239.024414,261.099548 239.340729,261.340942 
	C246.926300,254.538727 255.562027,253.597916 265.190857,256.157104 
	C274.671478,259.998413 279.074188,268.195770 284.078125,276.249298 
	C291.969513,294.808014 290.248871,312.135956 279.595154,328.734314 
	C276.199310,334.025024 273.056335,339.478027 269.797668,344.856750 
	C242.504166,344.887115 215.210648,344.917450 187.316803,344.584961 
	C184.486816,340.851166 182.257156,337.480225 180.027496,334.109283 
M213.543900,313.362427 
	C212.975037,311.652069 212.826660,309.597595 211.760208,308.294464 
	C208.254562,304.010773 208.488327,299.850067 211.271576,295.420197 
	C211.972321,294.304871 212.451263,293.030609 212.904938,291.783142 
	C214.387146,287.707275 212.923004,284.570648 209.491287,282.334381 
	C206.055206,280.095306 202.366043,280.541229 200.029434,283.626282 
	C191.958313,294.282623 189.769608,306.091187 198.629242,317.049133 
	C203.791626,323.434174 210.383133,321.963776 213.543900,313.362427 
z"/>
<path fill="#02A437" opacity="1.000000" stroke="none" 
	d="
M123.388306,215.104736 
	C121.600754,215.105621 120.201141,215.045090 118.427429,214.499603 
	C119.320084,203.343765 123.168083,193.861969 130.160538,185.531891 
	C133.525940,181.522720 132.509552,176.982635 128.603394,174.206802 
	C125.448036,171.964554 120.744881,172.394623 117.815727,175.772018 
	C109.787651,185.028580 104.527374,195.640045 102.984360,207.931000 
	C102.862320,208.903107 102.569801,209.853806 102.118286,211.887375 
	C101.322594,210.042648 100.979576,209.308014 100.684662,208.554535 
	C96.860870,198.785126 93.331741,188.884140 89.048576,179.320755 
	C87.775566,176.478409 84.723061,173.534195 81.854050,172.620270 
	C79.928406,172.006851 75.576569,174.302917 74.673149,176.343369 
	C73.462914,179.076828 73.775787,183.072571 74.768677,186.086929 
	C78.197296,196.496124 82.205002,206.714554 85.996056,217.002808 
	C85.999901,217.000000 86.005096,216.992722 85.714462,216.825012 
	C75.346550,208.637039 64.232246,202.921021 51.164860,202.057800 
	C45.019154,201.651840 42.384178,203.859833 42.011974,208.682190 
	C41.600788,214.009644 44.215084,217.131882 50.157875,217.899902 
	C60.570858,219.245651 69.445190,223.658295 77.012787,230.844254 
	C75.876442,232.188065 74.740097,233.531860 73.302101,235.020844 
	C62.241203,240.546417 51.357796,241.011475 40.878662,234.871429 
	C31.232124,229.219208 25.407824,220.957672 24.918928,209.217087 
	C24.396292,196.666183 28.461149,186.632599 39.022186,179.455261 
	C39.933353,178.836029 40.841267,177.511749 40.911488,176.459000 
	C42.251747,156.365662 56.379044,143.577713 73.846252,140.358688 
	C85.015251,138.300369 95.945282,140.473587 105.223732,147.775528 
	C108.135529,150.067062 110.943405,151.287140 114.914246,151.136444 
	C128.638916,150.615585 139.545486,156.359375 145.675812,168.669525 
	C152.049210,181.467834 150.003632,194.119095 141.104401,205.204391 
	C136.790268,210.578262 130.623047,213.643448 123.388306,215.104736 
z"/>
<path fill="#027E2A" opacity="1.000000" stroke="none" 
	d="
M284.019989,275.875641 
	C279.074188,268.195770 274.671478,259.998413 265.215332,255.694092 
	C264.944916,247.657028 264.911774,240.316269 265.104553,232.687485 
	C266.401550,232.008301 267.456482,231.563797 268.546204,231.234528 
	C276.806152,228.738693 278.545258,224.346024 274.388733,216.717590 
	C277.633270,209.875412 280.757507,203.331192 283.652039,196.686905 
	C285.606018,192.201569 287.236206,187.575165 289.255615,182.765686 
	C293.896851,171.499084 298.381927,160.512527 302.632538,149.436005 
	C303.792847,146.412415 304.248383,143.118362 305.027344,139.948456 
	C308.045776,132.663467 311.181305,125.424355 314.055542,118.082924 
	C318.515778,106.690460 322.804108,95.230606 327.151031,83.793892 
	C328.081940,81.344772 329.508057,80.564949 332.166016,81.523361 
	C337.921112,83.598564 343.736755,85.529968 349.604462,87.259605 
	C353.113739,88.294037 353.316345,90.030617 352.101257,93.137199 
	C344.319855,113.032150 336.470978,132.905838 329.091919,152.951294 
	C323.847961,167.196671 319.093201,181.634293 314.585693,196.130890 
	C313.293488,200.286758 313.622467,204.946732 312.763947,209.975357 
	C302.886536,232.341995 293.453247,254.108810 284.019989,275.875641 
z"/>
<path fill="#026A23" opacity="1.000000" stroke="none" 
	d="
M305.018250,139.483566 
	C304.248383,143.118362 303.792847,146.412415 302.632538,149.436005 
	C298.381927,160.512527 293.896851,171.499084 288.925171,182.636383 
	C285.200562,174.763290 281.884460,166.833771 278.955078,158.763870 
	C276.704956,152.565308 274.942047,146.189926 272.962463,139.893173 
	C272.975067,103.591507 273.076843,67.289391 272.894104,30.988707 
	C272.869598,26.129566 274.290344,24.638950 279.076294,24.902067 
	C286.049164,25.285412 293.072876,25.271624 300.047668,24.906464 
	C304.689117,24.663465 305.064758,26.911718 305.055573,30.613153 
	C304.965698,66.748146 305.005920,102.883469 305.018250,139.483566 
z"/>
<path fill="#027226" opacity="1.000000" stroke="none" 
	d="
M272.667786,139.711655 
	C274.942047,146.189926 276.704956,152.565308 278.955078,158.763870 
	C281.884460,166.833771 285.200562,174.763290 288.680725,182.882538 
	C287.236206,187.575165 285.606018,192.201569 283.652039,196.686905 
	C280.757507,203.331192 277.633270,209.875412 274.034088,216.561050 
	C270.615051,216.080872 267.768738,215.501846 264.922424,214.922836 
	C264.973999,197.918854 260.612122,181.984726 254.234482,166.300873 
	C244.443314,142.222397 235.424149,117.830559 225.985657,93.607445 
	C224.645325,90.167633 224.829880,88.134750 228.934494,87.045364 
	C234.535339,85.558861 240.050629,83.685730 245.486084,81.664940 
	C248.632385,80.495193 249.928314,81.499245 251.043625,84.418701 
	C258.073303,102.819794 265.246979,121.165878 272.667786,139.711655 
z"/>
<path fill="#C9CAC9" opacity="1.000000" stroke="none" 
	d="
M284.078125,276.249298 
	C293.453247,254.108810 302.886536,232.341995 312.583191,210.364899 
	C312.904999,212.481064 312.963409,214.807495 313.095520,217.565750 
	C312.532013,219.865799 311.961853,221.760147 311.245911,223.597702 
	C308.341766,231.051895 307.872467,238.677460 311.231323,245.931976 
	C313.423676,250.667114 314.107880,255.477753 312.826752,260.096191 
	C310.286865,269.252716 310.968414,278.162537 313.027222,288.051422 
	C313.015747,293.729523 313.307648,298.548340 312.930176,303.314117 
	C312.438202,309.524902 313.935181,314.569611 318.181702,319.444672 
	C324.452942,326.644165 329.825439,334.607025 329.729492,344.862610 
	C310.073212,344.895386 290.416962,344.928131 270.279175,344.908813 
	C273.056335,339.478027 276.199310,334.025024 279.595154,328.734314 
	C290.248871,312.135956 291.969513,294.808014 284.078125,276.249298 
z"/>
<path fill="#027E2A" opacity="1.000000" stroke="none" 
	d="
M426.004089,344.389648 
	C409.645142,344.880615 393.285156,344.926666 376.461548,344.458862 
	C376.460571,331.602875 372.300781,320.809998 364.981659,311.075989 
	C372.116333,305.365356 380.778961,303.367096 389.699402,301.409058 
	C393.941376,309.593262 397.798737,317.429321 400.830719,323.588593 
	C404.105164,317.550293 408.050385,310.274994 411.995636,302.999695 
	C418.625183,302.709137 424.184845,305.608978 429.670380,308.827026 
	C431.525391,309.915283 433.563080,310.692200 435.772644,311.852325 
	C429.643250,321.752625 425.421112,332.092651 426.004089,344.389648 
z"/>
<path fill="#8F6934" opacity="1.000000" stroke="none" 
	d="
M264.549683,214.981644 
	C267.768738,215.501846 270.615051,216.080872 273.816010,216.816406 
	C278.545258,224.346024 276.806152,228.738693 268.546204,231.234528 
	C267.456482,231.563797 266.401550,232.008301 264.749481,232.717270 
	C261.794983,234.177414 259.321411,235.151184 257.065552,236.491409 
	C247.584824,242.124069 241.017853,249.950241 239.024414,261.099548 
	C239.024414,261.099548 239.007233,261.006989 238.751892,261.101654 
	C238.377060,261.795288 238.257568,262.394257 238.138092,262.993225 
	C234.711868,271.609161 226.057358,272.889008 220.227325,265.296265 
	C222.435364,257.948914 224.400131,250.802383 227.152618,243.973373 
	C228.638092,240.287918 231.470947,237.145508 234.178894,233.360565 
	C237.440063,230.364029 240.218246,227.764999 242.996460,225.165985 
	C250.056625,221.790817 257.116791,218.415634 264.549683,214.981644 
z"/>
<path fill="#02A437" opacity="1.000000" stroke="none" 
	d="
M242.703278,224.962219 
	C240.218246,227.764999 237.440063,230.364029 234.330383,233.064224 
	C226.667221,232.547989 219.181976,233.932098 212.132950,230.148804 
	C205.016296,226.329224 199.529007,221.220215 195.991226,213.984802 
	C194.041122,209.996490 192.056778,206.024918 190.046249,201.961670 
	C212.977722,199.708267 230.365036,197.999405 242.703278,224.962219 
z"/>
<path fill="#E78244" opacity="1.000000" stroke="none" 
	d="
M88.551048,314.077026 
	C95.268265,311.598999 101.646149,309.282288 108.034630,306.995209 
	C109.903412,306.326141 111.761177,305.460724 113.696098,305.176971 
	C117.562912,304.609924 121.094589,305.242432 122.612114,309.559662 
	C124.281044,314.307648 122.729324,318.373779 118.155602,320.286163 
	C112.348511,322.714233 106.382324,324.760406 100.501747,327.015564 
	C99.431480,327.425964 98.442795,328.049103 97.170853,328.832458 
	C88.550125,328.841980 85.408333,326.173553 86.085754,319.478271 
	C86.267502,317.681976 87.477699,315.989685 88.551048,314.077026 
z"/>
<path fill="#E78244" opacity="1.000000" stroke="none" 
	d="
M74.983116,286.356018 
	C81.271919,283.479065 87.317924,280.749298 93.530983,278.476135 
	C97.989769,276.844879 102.356796,279.060364 103.724289,283.062897 
	C105.207680,287.404694 103.573242,291.378296 99.144783,293.312988 
	C93.988129,295.565796 88.705872,297.531067 83.207909,299.859253 
	C73.729401,299.730988 70.616806,294.598694 74.983116,286.356018 
z"/>
<path fill="#000000" opacity="1.000000" stroke="none" 
	d="
M364.609497,311.193420 
	C372.300781,320.809998 376.460571,331.602875 375.997192,344.389771 
	C360.897919,344.883972 345.799347,344.933411 330.215149,344.922729 
	C329.825439,334.607025 324.452942,326.644165 318.181702,319.444672 
	C313.935181,314.569611 312.438202,309.524902 312.930176,303.314117 
	C313.307648,298.548340 313.015747,293.729523 313.095032,288.469543 
	C321.588074,307.600922 340.660187,317.682312 364.609497,311.193420 
z"/>
<path fill="#027F2A" opacity="1.000000" stroke="none" 
	d="
M380.238403,175.181458 
	C398.677032,161.845078 422.714294,171.721695 428.726837,189.596481 
	C430.435150,194.675079 428.670380,198.682327 423.984711,200.444077 
	C420.083008,201.911087 416.160889,199.923615 413.967773,195.368149 
	C409.646484,186.392105 400.907196,182.375092 392.683411,186.537521 
	C389.264435,188.268021 386.454559,191.867371 384.265961,195.205750 
	C381.072113,200.077606 377.480408,202.131683 373.348022,200.140411 
	C368.631653,197.867737 366.869568,193.651276 369.782440,188.596558 
	C372.530548,183.827789 376.506287,179.766434 380.238403,175.181458 
z"/>
<path fill="#027F2A" opacity="1.000000" stroke="none" 
	d="
M337.079834,242.659821 
	C330.536285,228.137405 340.257477,212.595886 354.286041,209.425293 
	C360.093994,208.112625 364.497375,209.635178 366.294189,213.773590 
	C368.602142,219.089417 365.290039,223.620850 358.946411,225.179138 
	C356.247070,225.842224 353.079193,227.911209 351.858185,230.247498 
	C350.852386,232.171997 351.689392,235.906570 353.045166,237.955154 
	C354.166504,239.649506 357.154236,240.439453 359.465057,240.947052 
	C364.319458,242.013336 367.155640,244.935013 366.957581,249.370926 
	C366.751709,253.980881 363.361633,257.143616 358.201172,256.941132 
	C348.464600,256.559021 341.820221,251.264954 337.079834,242.659821 
z"/>
<path fill="#000000" opacity="1.000000" stroke="none" 
	d="
M411.825684,302.683105 
	C408.050385,310.274994 404.105164,317.550293 400.830719,323.588593 
	C397.798737,317.429321 393.941376,309.593262 390.091492,301.406738 
	C393.081116,299.432434 396.063202,297.808594 398.655792,296.396820 
	C403.158966,298.464722 407.407349,300.415649 411.825684,302.683105 
z"/>
<path fill="#C48426" opacity="1.000000" stroke="none" 
	d="
M64.999130,360.995361 
	C67.972588,361.003265 70.468910,360.891052 72.948730,361.044739 
	C77.759903,361.343018 80.886116,364.473236 80.958145,368.868866 
	C81.030495,373.283691 77.953644,376.712677 73.208687,376.912903 
	C67.743195,377.143494 62.253052,377.143219 56.787548,376.912781 
	C52.047318,376.712860 48.970871,373.282104 49.041485,368.866516 
	C49.111797,364.469269 52.236191,361.341583 57.049488,361.044556 
	C59.529415,360.891571 62.025665,361.003265 64.999130,360.995361 
z"/>
<path fill="#C48426" opacity="1.000000" stroke="none" 
	d="
M264.526550,376.989380 
	C259.263153,376.996246 254.444122,377.095001 249.631226,376.965363 
	C244.429047,376.825287 241.158524,373.763611 241.041595,369.202606 
	C240.919449,364.437622 244.283600,361.175507 249.720322,361.030914 
	C254.367340,360.907288 259.020996,360.944336 263.670197,361.014709 
	C269.160950,361.097839 272.414246,363.645142 272.917145,368.100098 
	C273.438843,372.721741 270.691376,375.793365 264.526550,376.989380 
z"/>
<path fill="#C48426" opacity="1.000000" stroke="none" 
	d="
M464.007812,372.766785 
	C463.169250,373.856812 462.615204,374.742737 461.830719,375.309967 
	C458.616791,377.633636 439.360352,378.238800 436.691315,375.454712 
	C434.779114,373.460144 433.036865,369.808685 433.554871,367.398590 
	C434.072449,364.990417 437.290863,361.774384 439.686279,361.431030 
	C445.713440,360.567139 451.970978,360.762848 458.085205,361.218048 
	C463.520325,361.622742 465.749329,366.220337 464.007812,372.766785 
z"/>
<path fill="#000000" opacity="1.000000" stroke="none" 
	d="
M180.016876,334.502441 
	C182.257156,337.480225 184.486816,340.851166 186.849503,344.534302 
	C185.945175,344.894684 184.907822,344.942871 183.481461,344.959412 
	C182.063721,341.583710 181.034988,338.239624 180.016876,334.502441 
z"/>
<path fill="#C48325" opacity="1.000000" stroke="none" 
	d="
M79.170464,411.897919 
	C82.837624,419.666199 79.743919,424.834412 71.692482,424.980713 
	C66.866547,425.068420 62.032673,425.121674 57.211258,424.946167 
	C52.118641,424.760712 48.915073,421.409912 49.041397,416.773895 
	C49.162338,412.335632 52.268364,409.222565 57.162586,409.056793 
	C62.317249,408.882233 67.499725,408.769348 72.634567,409.131927 
	C74.777023,409.283234 76.827850,410.732269 79.170464,411.897919 
z"/>
<path fill="#C48325" opacity="1.000000" stroke="none" 
	d="
M244.621399,423.684143 
	C241.073196,420.803101 240.130890,417.488678 241.793793,413.659088 
	C243.408173,409.941284 246.616882,408.930420 250.400864,408.986023 
	C255.060287,409.054535 259.724060,408.908783 264.381104,409.035461 
	C269.637878,409.178467 272.854645,412.195557 272.958313,416.816223 
	C273.066132,421.621124 269.725647,425.003662 264.250671,424.928070 
	C257.818298,424.839264 251.392685,424.261230 244.621399,423.684143 
z"/>
<path fill="#C48325" opacity="1.000000" stroke="none" 
	d="
M435.362793,422.690308 
	C430.740295,414.934723 433.925323,409.148041 442.507751,409.014740 
	C447.167755,408.942352 451.833130,408.901093 456.490265,409.039948 
	C461.705017,409.195374 464.916168,412.295807 464.958344,416.927826 
	C465.000671,421.577728 461.807312,424.789825 456.634094,424.952240 
	C451.644867,425.108856 446.636139,425.180115 441.658020,424.898682 
	C439.623505,424.783661 437.647003,423.642639 435.362793,422.690308 
z"/>
<path fill="#C48426" opacity="1.000000" stroke="none" 
	d="
M73.409164,472.953613 
	C67.818359,472.983978 62.666302,473.099640 57.521252,472.958954 
	C52.349152,472.817566 49.096931,469.672913 49.041553,465.091064 
	C48.985935,460.489410 52.214390,457.222626 57.335587,457.047638 
	C62.146950,456.883270 66.969048,456.942200 71.784645,457.017273 
	C77.025391,457.098999 80.192329,459.497803 80.876907,463.720276 
	C81.583290,468.077240 79.208588,471.188873 73.409164,472.953613 
z"/>
<path fill="#C48426" opacity="1.000000" stroke="none" 
	d="
M242.848541,459.909180 
	C245.187408,458.739746 247.233795,457.282898 249.372894,457.130951 
	C254.501968,456.766571 259.679413,456.877319 264.828217,457.056763 
	C269.690002,457.226227 272.835785,460.380066 272.958130,464.775635 
	C273.085815,469.361786 269.834198,472.759521 264.776917,472.947235 
	C259.960876,473.125977 255.131836,473.073608 250.311157,472.982422 
	C242.284561,472.830627 239.165466,467.611481 242.848541,459.909180 
z"/>
<path fill="#C48426" opacity="1.000000" stroke="none" 
	d="
M433.072083,464.222534 
	C434.166260,458.986938 437.340729,456.960114 442.117798,456.994171 
	C446.939758,457.028534 451.766022,456.888458 456.583282,457.044403 
	C461.739380,457.211365 464.975311,460.424622 464.958160,465.028412 
	C464.941040,469.620697 461.690735,472.799347 456.525452,472.958496 
	C451.707703,473.106934 446.880402,473.074127 442.060150,472.978668 
	C436.200226,472.862640 433.976379,470.730438 433.072083,464.222534 
z"/>
<path fill="#037F2A" opacity="1.000000" stroke="none" 
	d="
M77.296608,230.689270 
	C69.445190,223.658295 60.570858,219.245651 50.157875,217.899902 
	C44.215084,217.131882 41.600788,214.009644 42.011974,208.682190 
	C42.384178,203.859833 45.019154,201.651840 51.164860,202.057800 
	C64.232246,202.921021 75.346550,208.637039 85.749252,216.896103 
	C86.074677,217.134903 86.251144,217.146667 86.251144,217.146667 
	C86.251144,217.146667 85.992210,217.005630 85.992210,217.005630 
	C82.205002,206.714554 78.197296,196.496124 74.768677,186.086929 
	C73.775787,183.072571 73.462914,179.076828 74.673149,176.343369 
	C75.576569,174.302917 79.928406,172.006851 81.854050,172.620270 
	C84.723061,173.534195 87.775566,176.478409 89.048576,179.320755 
	C93.331741,188.884140 96.860870,198.785126 100.684662,208.554535 
	C100.979576,209.308014 101.322594,210.042648 102.118286,211.887375 
	C102.569801,209.853806 102.862320,208.903107 102.984360,207.931000 
	C104.527374,195.640045 109.787651,185.028580 117.815727,175.772018 
	C120.744881,172.394623 125.448036,171.964554 128.603394,174.206802 
	C132.509552,176.982635 133.525940,181.522720 130.160538,185.531891 
	C123.168083,193.861969 119.320084,203.343765 118.017014,214.407288 
	C101.906456,213.349594 88.232941,218.063507 77.296608,230.689270 
z"/>
<path fill="#E78243" opacity="1.000000" stroke="none" 
	d="
M120.229919,269.320404 
	C127.156723,266.160309 133.675369,262.724152 140.609802,260.744476 
	C142.623291,260.169647 146.815186,263.210724 148.165344,265.624969 
	C149.204514,267.483124 148.219788,272.591095 146.640579,273.425476 
	C140.133011,276.863770 133.260513,280.262360 126.126350,281.671234 
	C119.665825,282.947052 116.513924,275.964905 120.229919,269.320404 
z"/>
<path fill="#E88243" opacity="1.000000" stroke="none" 
	d="
M142.762268,293.617310 
	C145.588226,292.513214 148.039978,291.441162 150.585022,290.681824 
	C154.590927,289.486603 158.685593,291.535583 160.209152,295.622650 
	C161.688370,299.590820 160.365372,302.896393 156.774353,304.994446 
	C154.642380,306.240021 152.231201,307.057190 149.874969,307.859711 
	C143.837540,309.916107 140.460846,308.847656 138.081070,303.997986 
	C135.645142,299.033783 138.722641,296.234100 142.762268,293.617310 
z"/>
<path fill="#FF6167" opacity="1.000000" stroke="none" 
	d="
M213.480225,313.722504 
	C210.383133,321.963776 203.791626,323.434174 198.629242,317.049133 
	C189.769608,306.091187 191.958313,294.282623 200.029434,283.626282 
	C202.366043,280.541229 206.055206,280.095306 209.491287,282.334381 
	C212.923004,284.570648 214.387146,287.707275 212.904938,291.783142 
	C212.451263,293.030609 211.972321,294.304871 211.271576,295.420197 
	C208.488327,299.850067 208.254562,304.010773 211.760208,308.294464 
	C212.826660,309.597595 212.975037,311.652069 213.480225,313.722504 
z"/>
<path fill="#000000" opacity="1.000000" stroke="none" 
	d="
M239.340729,261.340942 
	C241.017853,249.950241 247.584824,242.124069 257.065552,236.491409 
	C259.321411,235.151184 261.794983,234.177414 264.523499,233.005310 
	C264.911774,240.316269 264.944916,247.657028 264.953613,255.460770 
	C255.562027,253.597916 246.926300,254.538727 239.340729,261.340942 
z"/>
<path fill="#000000" opacity="1.000000" stroke="none" 
	d="
M238.473572,262.827271 
	C238.257568,262.394257 238.377060,261.795288 238.798203,261.093323 
	C239.002914,261.547333 238.905975,262.104340 238.473572,262.827271 
z"/>
<path fill="#02A437" opacity="1.000000" stroke="none" 
	d="
M85.996056,217.002808 
	C85.992210,217.005630 86.251144,217.146667 86.251144,217.146667 
	C86.251144,217.146667 86.074677,217.134903 86.039886,217.063812 
	C86.005096,216.992722 85.999901,217.000000 85.996056,217.002808 
z"/>
</svg>