<svg version="1.1" id="Layer_1" xmlns="http://www.w3.org/2000/svg" xmlns:xlink="http://www.w3.org/1999/xlink" x="0px" y="0px"
	 width="100%" viewBox="0 0 512 512" enable-background="new 0 0 512 512" xml:space="preserve">
<path fill="#F43380" opacity="1.000000" stroke="none" 
	d="
M244.000000,513.000000 
	C240.969406,513.000000 237.938812,513.000000 234.250076,512.628906 
	C206.978531,510.192627 181.433075,503.850739 156.777008,492.910522 
	C156.029617,492.477203 155.486984,492.260651 154.975418,492.031189 
	C155.006485,492.018280 154.955444,492.063568 154.896530,491.720184 
	C154.233459,490.395538 153.698669,489.362793 153.014633,488.440796 
	C144.604050,477.103577 135.280334,466.326141 127.961731,454.325134 
	C117.939552,437.890900 108.654549,420.895844 100.506264,403.462158 
	C92.709503,386.780548 86.770767,369.230499 80.198051,351.777924 
	C92.834892,341.216217 107.246178,336.702301 123.257668,337.190887 
	C133.909744,337.515900 143.577866,341.410950 153.060364,346.149658 
	C153.223938,346.340027 153.338013,346.366547 153.452087,346.393066 
	C153.289734,346.274658 153.127396,346.156250 153.057358,345.676941 
	C146.102707,328.868744 126.970810,318.116791 108.044052,319.764648 
	C94.526688,320.941589 83.903160,327.373535 74.921677,336.908447 
	C66.776009,310.708618 59.394958,284.674774 56.168068,257.757111 
	C54.999012,248.005219 55.998604,237.993332 56.428589,228.081177 
	C72.387520,229.883667 87.896187,232.037994 103.471855,233.456802 
	C135.318497,236.357788 165.045090,229.808472 192.473587,212.289368 
	C207.540619,202.160538 222.269730,192.155884 237.330292,182.037964 
	C245.127808,177.950211 252.352554,173.401215 260.118073,170.139847 
	C270.986176,165.575439 281.159088,167.571777 289.137634,176.576279 
	C292.736328,180.637756 296.328583,185.140030 298.341461,190.086243 
	C303.463196,202.671494 307.693115,215.619659 312.347168,228.764252 
	C314.907471,239.998886 317.400574,250.891861 319.874512,262.230957 
	C325.058685,293.906525 326.605286,325.327423 324.617737,357.291931 
	C321.563110,391.622437 314.214905,424.424957 298.388184,454.879517 
	C285.709503,479.276428 268.595825,499.678833 244.000000,513.000000 
M114.980858,416.915344 
	C114.980858,416.915344 114.818687,416.829010 114.818687,416.829010 
	C114.818687,416.829010 115.032204,417.003967 115.075989,417.722565 
	C132.224701,455.694458 177.399048,472.936279 216.686142,456.504364 
	C246.489471,444.039062 271.659851,403.243500 263.130035,380.987366 
	C262.419342,382.011383 261.726501,382.940277 261.105194,383.914795 
	C232.451462,428.857513 176.208298,445.449615 127.878494,423.197632 
	C123.547005,421.203339 119.258995,419.114624 114.980858,416.915344 
M214.195068,300.693390 
	C205.459320,310.236572 200.968857,321.356842 201.193863,335.005066 
	C224.701584,303.541168 253.653015,296.128357 289.682129,313.179749 
	C287.895721,310.110596 286.843384,307.916351 285.449310,305.966431 
	C268.990265,282.944305 235.587479,279.596558 214.195068,300.693390 
z"/>
<path fill="#F9CB3F" opacity="1.000000" stroke="none" 
	d="
M324.790924,356.924347 
	C326.605286,325.327423 325.058685,293.906525 320.267914,262.298828 
	C348.303253,269.490631 368.962921,286.340210 384.633270,310.239624 
	C384.680939,303.903046 384.482239,297.912964 383.400421,292.086884 
	C377.229034,258.850800 349.589233,231.403503 312.279968,228.422577 
	C307.693115,215.619659 303.463196,202.671494 298.341461,190.086243 
	C296.328583,185.140030 292.736328,180.637756 289.137634,176.576279 
	C281.159088,167.571777 270.986176,165.575439 260.118073,170.139847 
	C252.352554,173.401215 245.127808,177.950211 237.326187,181.564148 
	C238.381271,167.652191 239.771942,154.100800 241.451157,140.741455 
	C258.231689,162.177307 286.108887,164.935181 305.465485,151.502640 
	C312.147675,146.865540 317.618439,141.136703 321.075043,132.824646 
	C288.742310,146.840317 262.395111,143.724884 243.921204,123.708412 
	C243.988068,122.268387 243.925827,121.251717 244.096664,120.275864 
	C249.039917,92.039909 255.369156,64.116066 265.686523,37.333797 
	C268.528595,29.956232 274.034363,23.604803 278.639832,16.885971 
	C287.554138,22.956383 296.200165,28.847860 304.729309,34.903893 
	C335.533997,56.776440 368.949982,70.239685 407.568573,66.818352 
	C414.073181,66.242096 420.524628,65.065613 427.445068,64.103043 
	C430.041595,63.960587 432.204193,63.990715 434.344086,63.785141 
	C450.673462,62.216446 466.970612,60.051525 483.335999,59.223446 
	C492.089325,58.780529 500.966400,61.242226 506.352478,69.106621 
	C509.374390,73.519035 510.835602,79.000298 513.000000,84.000000 
	C513.000000,92.687561 513.000000,101.375130 512.649292,110.745995 
	C511.618408,115.774681 511.220154,120.187004 510.207336,124.453445 
	C506.527740,139.953827 502.642303,155.405350 498.524963,171.049194 
	C497.631744,172.591827 497.042755,173.958344 496.465118,175.329636 
	C488.279266,194.761932 481.198975,214.755234 471.679321,233.510437 
	C452.171814,271.943268 426.368195,305.593079 390.822144,330.857330 
	C370.999939,344.945923 349.343048,354.675629 324.790924,356.924347 
M455.804291,168.235641 
	C455.135895,166.449265 455.141907,166.461258 452.669678,167.700043 
	C431.708649,178.203110 411.001984,177.704620 390.686920,166.013062 
	C381.775055,160.884186 374.977173,153.445160 369.246613,144.491364 
	C366.153564,161.782516 380.106781,183.107162 398.284271,189.621185 
	C420.719177,197.660889 444.194031,189.140854 455.804291,168.235641 
z"/>
<path fill="#434D70" opacity="1.000000" stroke="none" 
	d="
M324.617737,357.291931 
	C349.343048,354.675629 370.999939,344.945923 390.822144,330.857330 
	C426.368195,305.593079 452.171814,271.943268 471.679321,233.510437 
	C481.198975,214.755234 488.279266,194.761932 496.465118,175.329636 
	C497.042755,173.958344 497.631744,172.591827 498.602112,171.440643 
	C504.766693,188.264648 509.111847,205.202881 511.036560,222.725250 
	C511.488434,226.839081 512.335022,230.909576 513.000000,235.000000 
	C513.000000,249.354233 513.000000,263.708466 512.613708,278.719391 
	C511.155304,287.466370 510.197876,295.573792 508.989136,303.643616 
	C505.599548,326.273682 498.134583,347.645874 488.300446,368.187897 
	C478.482056,388.697266 466.127350,407.553375 450.993896,424.636505 
	C437.183350,440.226196 422.156403,454.334778 405.184723,466.458282 
	C387.096466,479.379364 367.661926,489.747101 346.899536,497.458557 
	C328.932556,504.131744 310.428741,509.029999 291.261353,511.039276 
	C287.150879,511.470154 283.085938,512.335083 279.000000,513.000000 
	C267.645782,513.000000 256.291534,513.000000 244.468658,513.000000 
	C268.595825,499.678833 285.709503,479.276428 298.388184,454.879517 
	C314.214905,424.424957 321.563110,391.622437 324.617737,357.291931 
z"/>
<path fill="#434D70" opacity="1.000000" stroke="none" 
	d="
M192.135681,212.413528 
	C165.045090,229.808472 135.318497,236.357788 103.471855,233.456802 
	C87.896187,232.037994 72.387520,229.883667 56.055641,227.906891 
	C47.152435,227.209305 39.002522,225.882202 30.940056,226.288864 
	C14.337641,227.126266 5.827555,233.980743 2.369012,247.791885 
	C1.933007,249.533020 1.457312,251.264206 1.000002,253.000000 
	C1.000000,247.311966 1.000000,241.623917 1.386341,235.279968 
	C2.179726,230.705322 2.270929,226.722519 3.050574,222.879395 
	C5.855200,209.054489 8.353970,195.133591 11.975001,181.516678 
	C16.705120,163.729019 24.349161,147.049591 33.443962,131.026260 
	C43.406464,113.474167 55.012257,97.132652 69.010315,82.593941 
	C75.787613,75.554886 83.020454,68.942101 90.220322,62.324852 
	C104.351692,49.337017 120.360764,39.002090 137.225861,30.002911 
	C158.102066,18.863422 180.168732,10.762051 203.369781,6.152160 
	C213.581223,4.123219 224.063354,3.456630 234.181702,2.434345 
	C228.921616,7.424924 222.722321,11.409573 219.165497,17.058144 
	C214.092316,25.114822 210.112000,34.114738 207.138275,43.194332 
	C194.057083,83.134697 187.853912,124.283882 188.274261,166.264969 
	C188.428406,181.659164 190.784195,197.031326 192.135681,212.413528 
z"/>
<path fill="#FFFFFF" opacity="1.000000" stroke="none" 
	d="
M234.422577,2.171497 
	C224.063354,3.456630 213.581223,4.123219 203.369781,6.152160 
	C180.168732,10.762051 158.102066,18.863422 137.225861,30.002911 
	C120.360764,39.002090 104.351692,49.337017 90.220322,62.324852 
	C83.020454,68.942101 75.787613,75.554886 69.010315,82.593941 
	C55.012257,97.132652 43.406464,113.474167 33.443962,131.026260 
	C24.349161,147.049591 16.705120,163.729019 11.975001,181.516678 
	C8.353970,195.133591 5.855200,209.054489 3.050574,222.879395 
	C2.270929,226.722519 2.179726,230.705322 1.386341,234.812012 
	C1.000000,157.072952 1.000000,79.145912 1.000000,1.000000 
	C78.687424,1.000000 156.375061,1.000000 234.505066,1.223588 
	C234.818207,1.721735 234.643250,1.963175 234.422577,2.171497 
z"/>
<path fill="#FFFFFF" opacity="1.000000" stroke="none" 
	d="
M279.468658,513.000000 
	C283.085938,512.335083 287.150879,511.470154 291.261353,511.039276 
	C310.428741,509.029999 328.932556,504.131744 346.899536,497.458557 
	C367.661926,489.747101 387.096466,479.379364 405.184723,466.458282 
	C422.156403,454.334778 437.183350,440.226196 450.993896,424.636505 
	C466.127350,407.553375 478.482056,388.697266 488.300446,368.187897 
	C498.134583,347.645874 505.599548,326.273682 508.989136,303.643616 
	C510.197876,295.573792 511.155304,287.466370 512.613708,279.188049 
	C513.000000,356.927032 513.000000,434.854095 513.000000,513.000000 
	C435.312561,513.000000 357.624939,513.000000 279.468658,513.000000 
z"/>
<path fill="#FFFFFF" opacity="1.000000" stroke="none" 
	d="
M156.981750,493.127258 
	C181.433075,503.850739 206.978531,510.192627 233.795959,512.628906 
	C156.406143,513.000000 78.812286,513.000000 1.000000,513.000000 
	C1.000000,435.312561 1.000000,357.624939 1.383187,279.681030 
	C1.925191,282.477173 2.084009,285.529572 2.483832,288.844788 
	C2.885543,291.570496 2.734221,294.102295 3.260152,296.484589 
	C5.736266,307.700531 7.815263,319.053375 11.160669,330.014099 
	C14.386784,340.583954 18.988703,350.733887 22.992090,361.032379 
	C22.997976,360.996460 22.926157,360.984589 22.958530,361.310272 
	C23.326023,362.114502 23.661144,362.593079 24.004219,363.029175 
	C24.012175,362.986755 23.927385,362.970337 23.956020,363.328522 
	C24.316927,364.479736 24.649197,365.272797 24.988354,366.031525 
	C24.995241,365.997223 24.926338,365.985229 24.958540,366.310822 
	C25.325680,367.114685 25.660618,367.592957 26.001799,368.030457 
	C26.008043,367.989685 25.926565,367.976868 25.958876,368.307526 
	C26.326250,369.142822 26.661312,369.647491 27.014042,370.512604 
	C29.344690,375.184509 31.605970,379.524658 33.979790,383.802338 
	C43.157894,400.341492 53.868698,415.919769 67.143326,429.317963 
	C79.435799,441.724762 92.459183,453.567200 106.192558,464.343140 
	C120.952278,475.924469 137.162689,485.531799 154.955444,492.063568 
	C154.955444,492.063568 155.006485,492.018280 155.101334,492.319153 
	C155.791382,492.789124 156.386566,492.958191 156.981750,493.127258 
z"/>
<path fill="#DF2D77" opacity="1.000000" stroke="none" 
	d="
M154.896530,491.720184 
	C137.162689,485.531799 120.952278,475.924469 106.192558,464.343140 
	C92.459183,453.567200 79.435799,441.724762 67.143326,429.317963 
	C53.868698,415.919769 43.157894,400.341492 33.979790,383.802338 
	C31.605970,379.524658 29.344690,375.184509 27.043093,370.167206 
	C26.678507,368.966522 26.302538,368.471680 25.926567,367.976868 
	C25.926565,367.976868 26.008043,367.989685 26.067810,367.687012 
	C25.727163,366.917938 25.326752,366.451599 24.926338,365.985229 
	C24.926338,365.985229 24.995241,365.997223 25.151249,365.691956 
	C24.847301,364.581207 24.387344,363.775787 23.927387,362.970337 
	C23.927385,362.970337 24.012175,362.986755 24.062710,362.686340 
	C23.717546,361.918823 23.321852,361.451721 22.926155,360.984589 
	C22.926157,360.984589 22.997976,360.996460 23.133581,360.645203 
	C22.715534,358.383759 22.158392,356.474579 21.608763,354.563202 
	C16.154743,335.596130 10.718133,316.624023 5.232477,297.666107 
	C4.346986,294.605927 3.244828,291.608459 2.242826,288.582001 
	C2.084009,285.529572 1.925191,282.477173 1.383187,279.212372 
	C1.000000,270.645752 1.000000,262.291534 1.000002,253.468658 
	C1.457312,251.264206 1.933007,249.533020 2.369012,247.791885 
	C5.827555,233.980743 14.337641,227.126266 30.940056,226.288864 
	C39.002522,225.882202 47.152435,227.209305 55.635708,227.925797 
	C55.998604,237.993332 54.999012,248.005219 56.168068,257.757111 
	C59.394958,284.674774 66.776009,310.708618 74.794250,337.213440 
	C67.303886,349.655487 64.136711,360.737518 66.221458,366.407135 
	C70.678818,361.771698 75.347107,356.916931 80.015396,352.062164 
	C86.770767,369.230499 92.709503,386.780548 100.506264,403.462158 
	C108.654549,420.895844 117.939552,437.890900 127.961731,454.325134 
	C135.280334,466.326141 144.604050,477.103577 153.014633,488.440796 
	C153.698669,489.362793 154.233459,490.395538 154.896530,491.720184 
z"/>
<path fill="#E4B832" opacity="1.000000" stroke="none" 
	d="
M234.181702,2.434345 
	C234.643250,1.963175 234.818207,1.721735 234.973724,1.223588 
	C239.356903,1.000000 243.713806,1.000000 248.797211,1.251786 
	C260.126404,4.703252 269.713257,9.817343 278.317871,16.782532 
	C274.034363,23.604803 268.528595,29.956232 265.686523,37.333797 
	C255.369156,64.116066 249.039917,92.039909 244.096664,120.275864 
	C243.925827,121.251717 243.988068,122.268387 243.625305,123.549759 
	C240.034805,119.956848 236.760666,116.080223 233.135254,111.787704 
	C233.027100,113.076492 232.898926,113.978264 232.883636,114.881950 
	C232.723083,124.377060 236.629288,132.565308 241.162598,140.549393 
	C239.771942,154.100800 238.381271,167.652191 236.994720,181.677414 
	C222.269730,192.155884 207.540619,202.160538 192.473587,212.289368 
	C190.784195,197.031326 188.428406,181.659164 188.274261,166.264969 
	C187.853912,124.283882 194.057083,83.134697 207.138275,43.194332 
	C210.112000,34.114738 214.092316,25.114822 219.165497,17.058144 
	C222.722321,11.409573 228.921616,7.424924 234.181702,2.434345 
z"/>
<path fill="#FFFFFF" opacity="1.000000" stroke="none" 
	d="
M513.000000,83.531342 
	C510.835602,79.000298 509.374390,73.519035 506.352478,69.106621 
	C500.966400,61.242226 492.089325,58.780529 483.335999,59.223446 
	C466.970612,60.051525 450.673462,62.216446 434.344086,63.785141 
	C432.204193,63.990715 430.041595,63.960587 427.096436,64.025970 
	C419.520660,58.672054 412.899536,53.109783 405.923920,48.034706 
	C387.719604,34.790199 367.950836,24.297062 346.868622,16.516905 
	C328.897705,9.884937 310.412598,4.964948 291.255219,2.959618 
	C287.146790,2.529560 283.083893,1.664611 279.000000,0.999999 
	C356.892242,1.000000 434.784454,1.000000 513.000000,1.000000 
	C513.000000,28.353378 513.000000,55.708031 513.000000,83.531342 
z"/>
<path fill="#444E70" opacity="1.000000" stroke="none" 
	d="
M278.531342,0.999999 
	C283.083893,1.664611 287.146790,2.529560 291.255219,2.959618 
	C310.412598,4.964948 328.897705,9.884937 346.868622,16.516905 
	C367.950836,24.297062 387.719604,34.790199 405.923920,48.034706 
	C412.899536,53.109783 419.520660,58.672054 426.651978,64.089386 
	C420.524628,65.065613 414.073181,66.242096 407.568573,66.818352 
	C368.949982,70.239685 335.533997,56.776440 304.729309,34.903893 
	C296.200165,28.847860 287.554138,22.956383 278.639832,16.885969 
	C269.713257,9.817343 260.126404,4.703252 249.261856,1.251786 
	C258.687561,1.000000 268.375122,1.000000 278.531342,0.999999 
z"/>
<path fill="#FFFFFF" opacity="1.000000" stroke="none" 
	d="
M513.000000,234.531342 
	C512.335022,230.909576 511.488434,226.839081 511.036560,222.725250 
	C509.111847,205.202881 504.766693,188.264648 498.911652,171.266724 
	C502.642303,155.405350 506.527740,139.953827 510.207336,124.453445 
	C511.220154,120.187004 511.618408,115.774681 512.649292,111.214645 
	C513.000000,152.020889 513.000000,193.041794 513.000000,234.531342 
z"/>
<path fill="#454D70" opacity="1.000000" stroke="none" 
	d="
M114.950790,417.069794 
	C119.258995,419.114624 123.547005,421.203339 127.878494,423.197632 
	C176.208298,445.449615 232.451462,428.857513 261.105194,383.914795 
	C261.726501,382.940277 262.419342,382.011383 263.130035,380.987366 
	C271.659851,403.243500 246.489471,444.039062 216.686142,456.504364 
	C177.399048,472.936279 132.224701,455.694458 115.032379,417.378021 
	C114.988762,417.033478 114.950783,417.069794 114.950790,417.069794 
z"/>
<path fill="#454E70" opacity="1.000000" stroke="none" 
	d="
M312.347168,228.764252 
	C349.589233,231.403503 377.229034,258.850800 383.400421,292.086884 
	C384.482239,297.912964 384.680939,303.903046 384.633270,310.239624 
	C368.962921,286.340210 348.303253,269.490631 320.287048,261.852661 
	C317.400574,250.891861 314.907471,239.998886 312.347168,228.764252 
z"/>
<path fill="#474C70" opacity="1.000000" stroke="none" 
	d="
M214.433655,300.433044 
	C235.587479,279.596558 268.990265,282.944305 285.449310,305.966431 
	C286.843384,307.916351 287.895721,310.110596 289.682129,313.179749 
	C253.653015,296.128357 224.701584,303.541168 201.193863,335.005066 
	C200.968857,321.356842 205.459320,310.236572 214.433655,300.433044 
z"/>
<path fill="#464D70" opacity="1.000000" stroke="none" 
	d="
M80.198059,351.777924 
	C75.347107,356.916931 70.678818,361.771698 66.221458,366.407135 
	C64.136711,360.737518 67.303886,349.655487 74.936432,337.570587 
	C83.903160,327.373535 94.526688,320.941589 108.044052,319.764648 
	C126.970810,318.116791 146.102707,328.868744 153.069305,345.663757 
	C152.988937,346.011475 153.010849,345.985779 153.010849,345.985779 
	C143.577866,341.410950 133.909744,337.515900 123.257668,337.190887 
	C107.246178,336.702301 92.834892,341.216217 80.198059,351.777924 
z"/>
<path fill="#DF2D77" opacity="1.000000" stroke="none" 
	d="
M156.777008,492.910492 
	C156.386566,492.958191 155.791382,492.789124 155.070267,492.332092 
	C155.486984,492.260651 156.029617,492.477203 156.777008,492.910492 
z"/>
<path fill="#464D70" opacity="1.000000" stroke="none" 
	d="
M152.976990,346.024658 
	C153.127396,346.156250 153.289734,346.274658 153.452087,346.393066 
	C153.338013,346.366547 153.223938,346.340027 153.060364,346.149658 
	C153.010849,345.985779 152.988937,346.011475 152.976990,346.024658 
z"/>
<path fill="#454D70" opacity="1.000000" stroke="none" 
	d="
M115.010483,417.018738 
	C115.032204,417.003967 114.818687,416.829010 114.818687,416.829010 
	C114.818687,416.829010 114.980858,416.915344 114.965820,416.992554 
	C114.950783,417.069794 114.988762,417.033478 115.010483,417.018738 
z"/>
<path fill="#464F6F" opacity="1.000000" stroke="none" 
	d="
M455.622375,168.556213 
	C444.194031,189.140854 420.719177,197.660889 398.284271,189.621185 
	C380.106781,183.107162 366.153564,161.782516 369.246613,144.491364 
	C374.977173,153.445160 381.775055,160.884186 390.686920,166.013062 
	C411.001984,177.704620 431.708649,178.203110 452.669678,167.700043 
	C455.141907,166.461258 455.135895,166.449265 455.622375,168.556213 
z"/>
<path fill="#474F6F" opacity="1.000000" stroke="none" 
	d="
M241.451157,140.741455 
	C236.629288,132.565308 232.723083,124.377060 232.883636,114.881950 
	C232.898926,113.978264 233.027100,113.076492 233.135254,111.787704 
	C236.760666,116.080223 240.034805,119.956848 243.604858,123.992142 
	C262.395111,143.724884 288.742310,146.840317 321.075043,132.824646 
	C317.618439,141.136703 312.147675,146.865540 305.465485,151.502640 
	C286.108887,164.935181 258.231689,162.177307 241.451157,140.741455 
z"/>
<path fill="#4B4C71" opacity="1.000000" stroke="none" 
	d="
M2.483830,288.844788 
	C3.244828,291.608459 4.346986,294.605927 5.232477,297.666107 
	C10.718133,316.624023 16.154743,335.596130 21.608763,354.563202 
	C22.158392,356.474579 22.715534,358.383759 23.127695,360.681152 
	C18.988703,350.733887 14.386784,340.583954 11.160669,330.014099 
	C7.815263,319.053375 5.736266,307.700531 3.260152,296.484589 
	C2.734221,294.102295 2.885543,291.570496 2.483830,288.844788 
z"/>
<path fill="#4B4C71" opacity="1.000000" stroke="none" 
	d="
M23.956022,363.328522 
	C24.387344,363.775787 24.847301,364.581207 25.144363,365.726257 
	C24.649197,365.272797 24.316927,364.479736 23.956022,363.328522 
z"/>
<path fill="#4B4C71" opacity="1.000000" stroke="none" 
	d="
M22.958529,361.310272 
	C23.321852,361.451721 23.717546,361.918823 24.054754,362.728790 
	C23.661144,362.593079 23.326023,362.114502 22.958529,361.310272 
z"/>
<path fill="#4B4C71" opacity="1.000000" stroke="none" 
	d="
M24.958542,366.310822 
	C25.326752,366.451599 25.727163,366.917938 26.061565,367.727783 
	C25.660618,367.592957 25.325680,367.114685 24.958542,366.310822 
z"/>
<path fill="#4B4C71" opacity="1.000000" stroke="none" 
	d="
M25.958878,368.307526 
	C26.302538,368.471680 26.678507,368.966522 27.025425,369.806732 
	C26.661312,369.647491 26.326250,369.142822 25.958878,368.307526 
z"/>
</svg>