<svg xmlns="http://www.w3.org/2000/svg" width="512" height="512" viewBox="0 0 512 512" version="1.1"><path d="M 231.889 2.495 C 225.079 6.043, 218.523 13.993, 212.966 25.444 C 202.486 47.037, 192.642 89.074, 188.950 128 C 187.225 146.191, 187.456 183.859, 189.385 198.866 C 190.259 205.668, 190.772 211.561, 190.524 211.962 C 189.833 213.080, 169.785 222.794, 162.546 225.519 C 159.012 226.849, 151.480 228.940, 145.810 230.165 C 130.173 233.544, 102.507 233.334, 75.500 229.632 C 41.692 224.997, 35.897 224.527, 26.986 225.704 C 16.439 227.096, 10.445 230.182, 6.277 236.365 C 1.951 242.781, 0.930 246.619, 0.277 258.905 C -0.865 280.388, 7.644 318.707, 22.268 357.949 C 29.450 377.220, 34.845 387.141, 48.723 406.599 C 88.958 463.009, 154.082 501.402, 224.842 510.426 C 242.444 512.671, 242.455 512.669, 251 507.192 C 265.843 497.677, 283.002 478.963, 293.812 460.500 C 308.120 436.063, 320.174 395.679, 322.685 363.768 L 323.294 356.036 326.897 355.494 C 352.394 351.663, 374.929 341.507, 398 323.450 C 437.726 292.358, 472.344 240.468, 493.034 181 C 494.852 175.775, 496.662 171.050, 497.057 170.500 C 498.214 168.887, 505.657 140.618, 508.642 126.500 C 510.959 115.538, 511.399 110.992, 511.445 97.500 C 511.511 78.361, 510.177 73.125, 503.549 66.496 C 494.592 57.540, 481.370 56.258, 447 61.014 C 411.306 65.954, 408.445 66.189, 390.500 65.662 C 366.380 64.954, 356.122 62.446, 334.500 51.974 C 320.850 45.363, 312.758 40.328, 288 23.040 C 278.375 16.319, 267.755 9.285, 264.400 7.408 C 250.702 -0.255, 240.211 -1.840, 231.889 2.495 M 232.278 117.232 C 233.754 137.429, 250.321 154.709, 271.587 158.233 C 285.334 160.511, 300.257 155.533, 310.681 145.191 C 315.795 140.118, 322.782 130.021, 320.386 131.166 C 319.899 131.399, 316.536 133.040, 312.912 134.813 C 295.860 143.157, 276.240 142.884, 258.500 134.055 C 249.006 129.330, 242.847 124.217, 236.430 115.735 L 231.712 109.500 232.278 117.232 M 367 145.840 C 367 150.690, 370.791 163.787, 373.564 168.519 C 388.136 193.384, 421.486 199.293, 443.690 180.944 C 447.991 177.390, 456 167.020, 456 165.005 C 456 164.569, 452.921 165.748, 449.158 167.625 C 432.079 176.145, 412.104 175.965, 394.107 167.130 C 385.912 163.106, 374.975 153.646, 371 147.144 C 368.045 142.309, 367 141.969, 367 145.840 M 311.503 228.799 C 311.876 229.734, 313.637 237.235, 315.416 245.466 L 318.650 260.432 326.075 263.054 C 348.305 270.905, 367.293 285.700, 379.587 304.750 C 381.450 307.637, 383.274 310, 383.638 310 C 385.422 310, 382.890 290.465, 379.974 281.722 C 370.092 252.097, 345.877 232.045, 314.662 227.639 C 311.337 227.170, 310.914 227.325, 311.503 228.799 M 239.181 286.233 C 226.130 288.123, 211.538 298.595, 205.685 310.270 C 202.575 316.474, 199.978 326.019, 200.056 330.960 L 200.111 334.500 202.306 331.520 C 203.513 329.881, 207.184 325.693, 210.464 322.213 C 228.610 302.960, 257.252 297.824, 281.708 309.439 L 288.987 312.895 287.081 309.198 C 282.725 300.749, 273.153 292.548, 263 288.567 C 257.304 286.333, 246.081 285.234, 239.181 286.233 M 96.762 320.880 C 79.767 326.496, 67.251 341.604, 65.046 359.164 C 64.244 365.546, 64.330 368.306, 65.287 366.917 C 65.445 366.688, 66.872 364.565, 68.458 362.199 C 72.805 355.718, 81.816 347.868, 89.572 343.807 C 100.388 338.144, 106.880 336.580, 119.500 336.598 C 128.899 336.611, 131.664 337.017, 138.500 339.382 C 142.900 340.904, 147.963 343.053, 149.750 344.157 C 151.537 345.260, 153 345.880, 153 345.534 C 153 345.187, 151.494 342.549, 149.653 339.672 C 145.232 332.761, 138.146 326.651, 130.069 322.786 C 124.227 319.990, 122.338 319.606, 113 319.313 C 104.718 319.054, 101.288 319.385, 96.762 320.880 M 259 384.749 C 254.132 392.709, 237.953 408.835, 229.160 414.492 C 212.369 425.293, 195.350 430.742, 175.500 431.674 C 156.075 432.586, 141.469 429.336, 122.651 419.918 L 112.802 414.988 116.044 420.744 C 124.396 435.576, 135.675 446.312, 150.500 453.543 C 162.722 459.504, 170.893 461.359, 185 461.378 C 198.599 461.395, 206.763 459.592, 218.578 453.960 C 244.206 441.744, 261.383 416.402, 262.776 388.750 C 263.046 383.387, 263.095 379.006, 262.884 379.013 C 262.673 379.020, 260.925 381.601, 259 384.749" stroke="none" fill="#f03281" fill-rule="evenodd"/><path d="M 253.500 2.336 C 261.957 5.481, 268.338 9.314, 288.150 23.146 C 312.757 40.326, 320.870 45.373, 334.500 51.974 C 358.662 63.676, 367.443 65.508, 399.224 65.476 C 415.364 65.460, 423.305 65.095, 424.067 64.333 C 424.893 63.507, 422.737 61.251, 415.843 55.729 C 371.860 20.493, 314.833 -0, 261 0.083 L 247.500 0.104 253.500 2.336 M 222.500 1.684 C 213.381 2.852, 192.829 7.388, 182.432 10.527 C 99.776 35.482, 35.502 99.705, 10.587 182.237 C 4.316 203.008, 0 228.876, 0.116 245 L 0.170 252.500 1.412 247.384 C 4.938 232.853, 13.058 226.687, 30.390 225.378 C 38.687 224.751, 40.917 224.963, 75.500 229.658 C 102.552 233.331, 130.235 233.531, 145.810 230.165 C 151.480 228.940, 159.012 226.849, 162.546 225.519 C 169.785 222.794, 189.833 213.080, 190.524 211.962 C 190.772 211.561, 190.259 205.668, 189.385 198.866 C 187.456 183.859, 187.225 146.191, 188.950 128 C 192.642 89.074, 202.486 47.037, 212.966 25.444 C 218.234 14.588, 225.005 6.106, 230.882 3 L 234.500 1.088 230 1.194 C 227.525 1.252, 224.150 1.473, 222.500 1.684 M 232.278 117.232 C 233.754 137.429, 250.321 154.709, 271.587 158.233 C 285.334 160.511, 300.257 155.533, 310.681 145.191 C 315.795 140.118, 322.782 130.021, 320.386 131.166 C 319.899 131.399, 316.536 133.040, 312.912 134.813 C 295.860 143.157, 276.240 142.884, 258.500 134.055 C 249.006 129.330, 242.847 124.217, 236.430 115.735 L 231.712 109.500 232.278 117.232 M 367 145.840 C 367 150.690, 370.791 163.787, 373.564 168.519 C 388.136 193.384, 421.486 199.293, 443.690 180.944 C 447.991 177.390, 456 167.020, 456 165.005 C 456 164.569, 452.921 165.748, 449.158 167.625 C 432.079 176.145, 412.104 175.965, 394.107 167.130 C 385.912 163.106, 374.975 153.646, 371 147.144 C 368.045 142.309, 367 141.969, 367 145.840 M 496.625 171 C 496.308 171.825, 494.278 177.450, 492.113 183.500 C 470.926 242.703, 437.321 292.674, 398 323.450 C 374.929 341.507, 352.394 351.663, 326.897 355.494 L 323.294 356.036 322.685 363.768 C 320.174 395.679, 308.120 436.063, 293.812 460.500 C 283.002 478.963, 265.843 497.677, 251 507.192 L 243.500 512 259 511.969 C 369.871 511.747, 468.975 437.209, 501.459 329.612 C 505.608 315.870, 509.562 296.800, 510.501 286 C 510.860 281.875, 511.386 277.825, 511.671 277 C 512.541 274.481, 511.981 239.104, 510.912 229 C 509.455 215.226, 506.349 199.363, 502.512 186.099 C 498.190 171.159, 497.370 169.057, 496.625 171 M 311.503 228.799 C 311.876 229.734, 313.637 237.235, 315.416 245.466 L 318.650 260.432 326.075 263.054 C 348.305 270.905, 367.293 285.700, 379.587 304.750 C 381.450 307.637, 383.274 310, 383.638 310 C 385.422 310, 382.890 290.465, 379.974 281.722 C 370.092 252.097, 345.877 232.045, 314.662 227.639 C 311.337 227.170, 310.914 227.325, 311.503 228.799 M 1.232 284 C 1.232 285.925, 1.438 286.712, 1.689 285.750 C 1.941 284.788, 1.941 283.212, 1.689 282.250 C 1.438 281.288, 1.232 282.075, 1.232 284 M 239.181 286.233 C 226.130 288.123, 211.538 298.595, 205.685 310.270 C 202.575 316.474, 199.978 326.019, 200.056 330.960 L 200.111 334.500 202.306 331.520 C 203.513 329.881, 207.184 325.693, 210.464 322.213 C 228.610 302.960, 257.252 297.824, 281.708 309.439 L 288.987 312.895 287.081 309.198 C 282.725 300.749, 273.153 292.548, 263 288.567 C 257.304 286.333, 246.081 285.234, 239.181 286.233 M 2.065 290.169 C 1.955 294.709, 6.770 317.121, 10.539 329.612 C 14.439 342.535, 20.514 358.377, 23.950 364.585 C 26.447 369.095, 26.271 368.512, 20.455 352.963 C 14.827 337.916, 9.550 320.008, 5.440 302 C 3.619 294.025, 2.100 288.701, 2.065 290.169 M 96.762 320.880 C 79.767 326.496, 67.251 341.604, 65.046 359.164 C 64.244 365.546, 64.330 368.306, 65.287 366.917 C 65.445 366.688, 66.872 364.565, 68.458 362.199 C 72.805 355.718, 81.816 347.868, 89.572 343.807 C 100.388 338.144, 106.880 336.580, 119.500 336.598 C 128.899 336.611, 131.664 337.017, 138.500 339.382 C 142.900 340.904, 147.963 343.053, 149.750 344.157 C 151.537 345.260, 153 345.880, 153 345.534 C 153 345.187, 151.494 342.549, 149.653 339.672 C 145.232 332.761, 138.146 326.651, 130.069 322.786 C 124.227 319.990, 122.338 319.606, 113 319.313 C 104.718 319.054, 101.288 319.385, 96.762 320.880 M 259 384.749 C 254.132 392.709, 237.953 408.835, 229.160 414.492 C 212.369 425.293, 195.350 430.742, 175.500 431.674 C 156.075 432.586, 141.469 429.336, 122.651 419.918 L 112.802 414.988 116.044 420.744 C 124.396 435.576, 135.675 446.312, 150.500 453.543 C 162.722 459.504, 170.893 461.359, 185 461.378 C 198.599 461.395, 206.763 459.592, 218.578 453.960 C 244.206 441.744, 261.383 416.402, 262.776 388.750 C 263.046 383.387, 263.095 379.006, 262.884 379.013 C 262.673 379.020, 260.925 381.601, 259 384.749" stroke="none" fill="#444c73" fill-rule="evenodd"/></svg>